/* XPM */
static const char * arrow_right_xpm[] = {
"16 16 44 1",
" 	c None",
".	c #4F9947",
"+	c #499141",
"@	c #42883B",
"#	c #74C768",
"$	c #71C365",
"%	c #6DBE61",
"&	c #68B85D",
"*	c #62B158",
"=	c #5CA953",
"-	c #56A14D",
";	c #62A35A",
">	c #5C9D55",
",	c #35782F",
"'	c #AEDAA5",
")	c #ABD8A2",
"!	c #A7D69E",
"~	c #A3D49A",
"{	c #9FD296",
"]	c #9ACF93",
"^	c #95CC8E",
"/	c #90CA89",
"(	c #8BC785",
"_	c #87C581",
":	c #82C27D",
"<	c #50914A",
"[	c #296925",
"}	c #A9D7A0",
"|	c #A5D59C",
"1	c #A1D398",
"2	c #9DD094",
"3	c #98CE90",
"4	c #93CB8B",
"5	c #8EC987",
"6	c #89C682",
"7	c #84C37E",
"8	c #80C17A",
"9	c #7CBE76",
"0	c #4A8C45",
"a	c #246321",
"b	c #3B8035",
"c	c #45883F",
"d	c #5EA159",
"e	c #498B44",
"                ",
"                ",
"                ",
"                ",
"           .    ",
"           +@   ",
" ##$%&*=-.+;>,  ",
" #')!~{]^/(_:<[ ",
" $}|1234567890a ",
" %&*=-.+@bcdea  ",
"           [a   ",
"           a    ",
"                ",
"                ",
"                ",
"                "};
