/* XPM */
static const char * cut_trace_xpm[] = {
"16 16 74 1",
" 	c None",
".	c #437EAA",
"+	c #8BB0CC",
"@	c #9FBDD6",
"#	c #4B80A9",
"$	c #AFC9DE",
"%	c #7CA4C3",
"&	c #6390B5",
"*	c #C1D5E7",
"=	c #83A7C5",
"-	c #9DBCD5",
";	c #5389B1",
">	c #CEDFEE",
",	c #7CA3C2",
"'	c #C5D8E9",
")	c #578CB3",
"!	c #D4E2F1",
"~	c #8EB2CE",
"{	c #E0EBF5",
"]	c #4A7FA6",
"^	c #5A8EB4",
"/	c #DDEAF6",
"(	c #B4CDE1",
"_	c #5D8DB1",
":	c #A7261B",
"<	c #BA342A",
"[	c #9D1C11",
"}	c #6998BB",
"|	c #D0E0F0",
"1	c #5F91B7",
"2	c #B9352C",
"3	c #CF463C",
"4	c #CA3E33",
"5	c #D74C3F",
"6	c #9ABCD8",
"7	c #E1EAF6",
"8	c #5A92BB",
"9	c #A9281D",
"0	c #CC463B",
"a	c #D4483B",
"b	c #9CBDDB",
"c	c #A6CCEE",
"d	c #DE4C40",
"e	c #D1433A",
"f	c #C33C32",
"g	c #AD2E23",
"h	c #A8251A",
"i	c #D25042",
"j	c #75A3CB",
"k	c #D64F41",
"l	c #A32116",
"m	c #C0392F",
"n	c #BE382E",
"o	c #BD3A2F",
"p	c #C93F35",
"q	c #B33025",
"r	c #DD4A3F",
"s	c #AC2A1F",
"t	c #B23024",
"u	c #C63C32",
"v	c #C84137",
"w	c #C73D32",
"x	c #CF4137",
"y	c #AB291F",
"z	c #B42D23",
"A	c #CC4035",
"B	c #A8271C",
"C	c #C53E34",
"D	c #D94B40",
"E	c #BF352C",
"F	c #D1473D",
"G	c #A9271D",
"H	c #A6271C",
"I	c #AF2D22",
"        .       ",
"        +       ",
"        @    #  ",
"        $   %&  ",
"        *  =-   ",
"       ;> ,'    ",
"       )!~{]    ",
"       ^/(_     ",
"    :<[}|1      ",
"   2345678      ",
"  90  abcde     ",
"  fg hijklmn    ",
"  opqrstu  v    ",
"   wxy zA BC    ",
"        DEFG    ",
"        HpI     "};
