/* XPM */
static const char * derived_controlled_add_xpm[] = {
"16 16 3 1",
" 	c None",
".	c #000000",
"+	c #FFFF00",
"  ......        ",
" ..++++..       ",
"..++++++.       ",
".+++..++.       ",
".++......       ",
".++.            ",
".++.     ....   ",
".++.......++.   ",
".+++..++..++.   ",
"..++++++..++....",
" ..++++.+++++++.",
"  .....++++++++.",
"      ....++....",
"         .++.   ",
"         .++.   ",
"         ....   "};
