/* XPM */
static const char * file_browser_xpm[] = {
"16 16 137 2",
"  	c None",
". 	c #D9B434",
"+ 	c #E1C25E",
"@ 	c #E2C360",
"# 	c #E2C35F",
"$ 	c #DBB63C",
"% 	c #DAB336",
"& 	c #FEFEFD",
"* 	c #FFFFFE",
"= 	c #FFFEFE",
"- 	c #FFFEFD",
"; 	c #FBF7EA",
"> 	c #E4C76B",
", 	c #E3C76B",
"' 	c #E6CD79",
") 	c #E5CA74",
"! 	c #DAAF35",
"~ 	c #FEFCF7",
"{ 	c #F8E48E",
"] 	c #F5DE91",
"^ 	c #F5E09F",
"/ 	c #F6E1AC",
"( 	c #FEFBEF",
"_ 	c #FEFDF4",
": 	c #FEFCF3",
"< 	c #FEFCF1",
"[ 	c #FEFBEE",
"} 	c #FFFDFA",
"| 	c #DAAF36",
"1 	c #DAAA36",
"2 	c #FDFAF1",
"3 	c #F5DE94",
"4 	c #F4DC93",
"5 	c #F2D581",
"6 	c #EDCA6A",
"7 	c #EACB6C",
"8 	c #EFD385",
"9 	c #EFD280",
"0 	c #EFD07A",
"a 	c #EECF76",
"b 	c #EECF72",
"c 	c #FBF7E9",
"d 	c #DAAE34",
"e 	c #DAAB35",
"f 	c #FBF6E8",
"g 	c #EFD494",
"h 	c #EECE88",
"i 	c #E9C173",
"j 	c #F6E9C9",
"k 	c #FEFCF2",
"l 	c #FEFCF0",
"m 	c #DAAB36",
"n 	c #DAA637",
"o 	c #FFFDF8",
"p 	c #FFFDF6",
"q 	c #FFFCF5",
"r 	c #FCF6D8",
"s 	c #F8E695",
"t 	c #D4D4A9",
"u 	c #B3C6C8",
"v 	c #9EBDE0",
"w 	c #A7C4E5",
"x 	c #BACFE2",
"y 	c #D4A747",
"z 	c #DAA136",
"A 	c #FEFCF6",
"B 	c #FCF2C8",
"C 	c #FBEFB9",
"D 	c #FAECAC",
"E 	c #F9E89C",
"F 	c #F7E38B",
"G 	c #D3D2A3",
"H 	c #B4CDE9",
"I 	c #DBE7F5",
"J 	c #DFECF8",
"K 	c #C9DDF2",
"L 	c #B8D0EB",
"M 	c #B2B3A7",
"N 	c #DA9A36",
"O 	c #FDFAF2",
"P 	c #FAEDB3",
"Q 	c #F9E9A4",
"R 	c #F7E285",
"S 	c #F6DE76",
"T 	c #AAC6E6",
"U 	c #D6E4F3",
"V 	c #CAE0F6",
"W 	c #C6DEF5",
"X 	c #C5DEF5",
"Y 	c #D3E6F8",
"Z 	c #A8C2E0",
"` 	c #DA9435",
" .	c #FEFAEF",
"..	c #F9E9A1",
"+.	c #F8E591",
"@.	c #F7E181",
"#.	c #F6DE72",
"$.	c #F5DA63",
"%.	c #DCEAF8",
"&.	c #C6DDF4",
"*.	c #C4DCF4",
"=.	c #BDD8F3",
"-.	c #CDE2F8",
";.	c #A4C1E4",
">.	c #D98E33",
",.	c #FAF0DC",
"'.	c #F4DDA7",
").	c #F4DB9E",
"!.	c #F3DA96",
"~.	c #F3D88E",
"{.	c #F3D786",
"].	c #A8C4E5",
"^.	c #D6E5F5",
"/.	c #C1DAF4",
"(.	c #CCE3F8",
"_.	c #9AB6D9",
":.	c #D8882D",
"<.	c #D8872D",
"[.	c #B5AFA8",
"}.	c #C9DCF2",
"|.	c #CEE3F8",
"1.	c #C7E0F7",
"2.	c #CBE2F8",
"3.	c #B3D1F3",
"4.	c #99A3B2",
"5.	c #9ABAE0",
"6.	c #ABC6E6",
"7.	c #A9C5E6",
"8.	c #9BBADF",
"9.	c #97A3B6",
"0.	c #D3B89C",
"a.	c #C8955E",
"b.	c #C99862",
"c.	c #DEB992",
"d.	c #B68349",
"e.	c #BC8C54",
"f.	c #BA8A50",
"                                ",
". + @ @ @ # $                   ",
"% & * = - * ; > , , , ' )       ",
"! ~ { ] ^ / ( _ : < ( [ } |     ",
"1 2 3 4 5 6 7 8 9 0 a b c d     ",
"e f g h i j k : k l ( [ * m     ",
"n * o p q : r s t u v w x y     ",
"z A B C D E F G H I J K L M     ",
"N O P Q s R S T U V W X Y Z     ",
"`  ...+.@.#.$.v %.&.*.=.-.;.    ",
">.,.'.).!.~.{.].^./.=.=.(._.    ",
"  :.<.:.:.:.:.[.}.|.1.2.3.4.    ",
"                5.6.7.8.9.0.a.  ",
"                          b.c.d.",
"                            e.f.",
"                                "};
