/* XPM */
static const char * hide_xpm[] = {
"12 12 4 1",
" 	c None",
".	c #00FF03",
"+	c #C0C0C0",
"@	c #000000",
"..++++++++..",
"..++++++++..",
"..++++++++..",
"..@++++++@..",
"..@@++++@@..",
"@@@@@++@@@@@",
"..@@++++@@..",
"..@++++++@..",
"..++++++++..",
"..++++++++..",
"..++++++++..",
"..++++++++.."};
