/* XPM */
static const char * color_xpm[] = {
"12 12 4 1",
".	c #0021E0",
"+	c #006361",
"@	c #00D433",
"#	c #00FF03",
"....+@@@+###",
"....+@@@+###",
"....+@@@+###",
"....+@@@+###",
"....+@@@+###",
"....+@@@+###",
"....+@@@+###",
"....+@@@+###",
"....+@@@+###",
"....+@@@+###",
"....+@@@+###",
"....+@@@+###"};
