/* XPM */
static const char * histo_zoom_xpm[] = {
"16 16 67 1",
" 	c None",
".	c #CEA75E",
"+	c #CEA761",
"@	c #CFA864",
"#	c #CEA662",
"$	c #CCA15D",
"%	c #C89C57",
"&	c #CFA861",
"*	c #CEA65E",
"=	c #C79A57",
"-	c #C79757",
";	c #CDA45B",
">	c #C39150",
",	c #C39153",
"'	c #CDA65E",
")	c #CDA55E",
"!	c #C18E4F",
"~	c #BD894C",
"{	c #CEA660",
"]	c #BE894D",
"^	c #CFA762",
"/	c #BE8A4F",
"(	c #CDA561",
"_	c #BD864C",
":	c #C99F5B",
"<	c #B87F47",
"[	c #C69956",
"}	c #C69655",
"|	c #B98149",
"1	c #B67943",
"2	c #C49555",
"3	c #C18F4F",
"4	c #C39255",
"5	c #D2AB6F",
"6	c #BE7340",
"7	c #C28F50",
"8	c #BE8A4D",
"9	c #C18C52",
"0	c #D6B479",
"a	c #E3CC99",
"b	c #DEC48D",
"c	c #BC834F",
"d	c #BC854A",
"e	c #BC864C",
"f	c #BC844B",
"g	c #B77E47",
"h	c #BB814C",
"i	c #DBBF87",
"j	c #E8D5A3",
"k	c #E9D7A5",
"l	c #DABB80",
"m	c #AB643D",
"n	c #C18E58",
"o	c #DFC58F",
"p	c #E7D3A0",
"q	c #E0C793",
"r	c #C99B61",
"s	c #874828",
"t	c #BC8451",
"u	c #D7B57D",
"v	c #D6B57F",
"w	c #C39156",
"x	c #AB6737",
"y	c #A55C33",
"z	c #B98048",
"A	c #AB6437",
"B	c #9B5830",
"   .+@#$%       ",
"  &*    =-      ",
" &;      >,     ",
"')        !~    ",
"{          ]    ",
"^          /    ",
"(          _    ",
":          <    ",
"[}        |1    ",
" 23      456    ",
"  78    90abc   ",
"   de_fghijklm  ",
"         nopqrs ",
"          tuvwx ",
"           yzA  ",
"            B   "};
