/* XPM */
static const char * text_list_bullets_xpm[] = {
"16 16 34 1",
" 	c None",
".	c #95BAEB",
"+	c #B5CFF1",
"@	c #777777",
"#	c #747474",
"$	c #707070",
"%	c #6B6B6B",
"&	c #656565",
"*	c #606060",
"=	c #595959",
"-	c #535353",
";	c #89B2E9",
">	c #86AFE7",
",	c #A5C4ED",
"'	c #75A5E5",
")	c #585858",
"!	c #515151",
"~	c #4A4A4A",
"{	c #434343",
"]	c #3C3C3C",
"^	c #343434",
"/	c #2D2D2D",
"(	c #262626",
"_	c #74A3E3",
":	c #5F96DE",
"<	c #8FB6E9",
"[	c #2B2B2B",
"}	c #242424",
"|	c #1E1E1E",
"1	c #171717",
"2	c #121212",
"3	c #0C0C0C",
"4	c #070707",
"5	c #030303",
"                ",
"                ",
"  .             ",
" .+.  @#$%&*=-  ",
"  .             ",
"                ",
"                ",
"  ;             ",
" >,'  )!~{]^/(  ",
"  _             ",
"                ",
"                ",
"  :             ",
" :<:  [}|12345  ",
"  :             ",
"                "};
