/* XPM */
static const char * new_histogram_xpm[] = {
"16 16 136 2",
"  	c None",
". 	c #FFFFFF",
"+ 	c #A3C2EF",
"@ 	c #A2C1EF",
"# 	c #9FC0ED",
"$ 	c #9DBEEB",
"% 	c #9ABCEB",
"& 	c #96BAE9",
"* 	c #93B7E7",
"= 	c #90B5E6",
"- 	c #8CB2E4",
"; 	c #88AFE2",
"> 	c #84ACE0",
", 	c #80A9DD",
"' 	c #7DA5DC",
") 	c #7AA3DA",
"! 	c #A1C1EE",
"~ 	c #F4F7FB",
"{ 	c #74A0D7",
"] 	c #9EBFEC",
"^ 	c #A5D59C",
"/ 	c #A1D398",
"( 	c #9DD094",
"_ 	c #98CE90",
": 	c #93CB8B",
"< 	c #8EC987",
"[ 	c #89C682",
"} 	c #84C37E",
"| 	c #80C17A",
"1 	c #7CBE76",
"2 	c #6F9BD4",
"3 	c #9BBDEB",
"4 	c #FDF3D2",
"5 	c #FCF2CF",
"6 	c #6A97D1",
"7 	c #98BAE9",
"8 	c #A6C3E9",
"9 	c #E5CD6E",
"0 	c #E5CA63",
"a 	c #6493CE",
"b 	c #94B7E7",
"c 	c #FEFDF9",
"d 	c #BCC8C5",
"e 	c #FBE7A5",
"f 	c #F8D766",
"g 	c #F8D259",
"h 	c #D2C581",
"i 	c #FCEFC7",
"j 	c #FEFCF6",
"k 	c #EBF1F7",
"l 	c #5F8FCB",
"m 	c #8FB4E5",
"n 	c #F2F6FA",
"o 	c #AAC6E9",
"p 	c #D9D198",
"q 	c #F9D86A",
"r 	c #F8DA73",
"s 	c #FAE08B",
"t 	c #F9DD82",
"u 	c #F7CE51",
"v 	c #F4C332",
"w 	c #D8BD6D",
"x 	c #B5CCE8",
"y 	c #DEE7F2",
"z 	c #598AC8",
"A 	c #8CB1E3",
"B 	c #F1F6FA",
"C 	c #AEC9EA",
"D 	c #FEFEFD",
"E 	c #E1CF80",
"F 	c #F8DA74",
"G 	c #FAE08C",
"H 	c #F9DD83",
"I 	c #F6D054",
"J 	c #F6CF61",
"K 	c #FEFEFC",
"L 	c #DBE5F1",
"M 	c #5586C6",
"N 	c #87AEE1",
"O 	c #F0F4FA",
"P 	c #B2CBEA",
"Q 	c #B3CCEA",
"R 	c #BECCCE",
"S 	c #F7D04C",
"T 	c #F9DE83",
"U 	c #F9D97A",
"V 	c #F4C12C",
"W 	c #B8C4C4",
"X 	c #B0C8E8",
"Y 	c #AEC8E8",
"Z 	c #D8E2F0",
"` 	c #5486C4",
" .	c #82AADF",
"..	c #EFF3F9",
"+.	c #B7CEEA",
"@.	c #CBCFBC",
"#.	c #F7CF4D",
"$.	c #F5C630",
"%.	c #F3C229",
"&.	c #F4C333",
"*.	c #F1E3BB",
"=.	c #5F8DC8",
"-.	c #7EA8DD",
";.	c #BAD0EB",
">.	c #BBD0EB",
",.	c #D0CEAC",
"'.	c #D9CB87",
").	c #BFCEDC",
"!.	c #C0CFDC",
"~.	c #D5C17C",
"{.	c #CAC39E",
"].	c #B5CDEA",
"^.	c #5C8AC6",
"/.	c #7AA4D9",
"(.	c #EEF3F9",
"_.	c #BED2EB",
":.	c #BFD3EB",
"<.	c #ADC7EA",
"[.	c #5F8CC6",
"}.	c #75A1D7",
"|.	c #EDF2F8",
"1.	c #EAF0F7",
"2.	c #E6EDF6",
"3.	c #E2EAF4",
"4.	c #DEE7F3",
"5.	c #DBE4F1",
"6.	c #5D8AC5",
"7.	c #729ED6",
"8.	c #6E99D3",
"9.	c #6896D1",
"0.	c #6392CE",
"a.	c #5E8ECB",
"b.	c #5B8AC9",
"c.	c #5687C7",
"d.	c #5284C3",
"e.	c #4277BB",
". . . . . . . . . . . . . . . . ",
". + @ # $ % & * = - ; > , ' ) . ",
". ! ~ ~ ~ ~ ~ ~ ~ ~ ~ ~ ~ ~ { . ",
". ] ~ ^ / ( _ : < [ } | 1 ~ 2 . ",
". 3 ~ . . . . 4 5 . . . . ~ 6 . ",
". 7 ~ 8 8 8 8 9 0 8 8 8 8 ~ a . ",
". b ~ 8 c d e f g h i j . k l . ",
". m n o p q r s t u v w x y z . ",
". A B C D E F G H I J K . L M . ",
". N O P Q R S T U V W X Y Z ` . ",
".  ...+.. @.#.$.%.&.*.. . Z =.. ",
". -...;.>.,.'.).!.~.{.].].Z ^.. ",
". /.(._.. :.. . . <.. . . Z [.. ",
". }.|.1.2.3.4.5.Z Z Z Z Z Z 6.. ",
". 7.8.9.0.a.b.c.d.d.d.d.d.d.e.. ",
". . . . . . . . . . . . . . . . "};
