/* XPM */
static const char * application_add_xpm[] = {
"16 16 123 2",
"  	c None",
". 	c #8DB1DD",
"+ 	c #7BA7DC",
"@ 	c #7AA6DC",
"# 	c #7AA4DA",
"$ 	c #79A2D8",
"% 	c #76A0D5",
"& 	c #759ED4",
"* 	c #739DD2",
"= 	c #729ACF",
"- 	c #7099CE",
"; 	c #6F96CB",
"> 	c #6C94C9",
", 	c #7A9AC4",
"' 	c #85ACDD",
") 	c #92B9E8",
"! 	c #6F90C1",
"~ 	c #668BC0",
"{ 	c #7AA4DB",
"] 	c #FFFFFF",
"^ 	c #FDF3D2",
"/ 	c #FCF2CF",
"( 	c #6387BD",
"_ 	c #79A3D9",
": 	c #F9FBFC",
"< 	c #F8FBFC",
"[ 	c #F7F9FB",
"} 	c #F4F7FB",
"| 	c #F2F7FA",
"1 	c #F4D771",
"2 	c #F4D465",
"3 	c #EAEFF6",
"4 	c #E7EBF5",
"5 	c #E4EAF3",
"6 	c #DEE7F2",
"7 	c #6085BA",
"8 	c #FAFDFD",
"9 	c #FAFCFC",
"0 	c #F8F9F6",
"a 	c #F6F1D3",
"b 	c #F6E4A3",
"c 	c #F8D766",
"d 	c #F8D259",
"e 	c #F1DA88",
"f 	c #ECE5C1",
"g 	c #EAEEEF",
"h 	c #E8ECF6",
"i 	c #5E81B7",
"j 	c #FCFDFD",
"k 	c #FBFDFD",
"l 	c #F8E7A0",
"m 	c #F9D86A",
"n 	c #F8DA73",
"o 	c #FAE08B",
"p 	c #F9DD82",
"q 	c #F7CE51",
"r 	c #F4C332",
"s 	c #F1CF74",
"t 	c #ECF2F8",
"u 	c #5C7EB5",
"v 	c #FCFEFE",
"w 	c #FBFCFB",
"x 	c #F8DF86",
"y 	c #F8DA74",
"z 	c #FAE08C",
"A 	c #F9DD83",
"B 	c #F6D054",
"C 	c #F3CD60",
"D 	c #F1F6F8",
"E 	c #F2F5FB",
"F 	c #5A7CB2",
"G 	c #739CD1",
"H 	c #FAF5DD",
"I 	c #F7D04C",
"J 	c #F9DE83",
"K 	c #F9D97A",
"L 	c #F4C12C",
"M 	c #BFC592",
"N 	c #759960",
"O 	c #668E4F",
"P 	c #618A4A",
"Q 	c #517971",
"R 	c #6F97CC",
"S 	c #FCFFFF",
"T 	c #FDFFFF",
"U 	c #FAF0CA",
"V 	c #F7CF4D",
"W 	c #F5C630",
"X 	c #F3C229",
"Y 	c #F4C333",
"Z 	c #A0AE4D",
"` 	c #B4D495",
" .	c #D0E6BA",
"..	c #8FBB6A",
"+.	c #578F2D",
"@.	c #376B19",
"#.	c #6E94CA",
"$.	c #FEFFFF",
"%.	c #FAEBB8",
"&.	c #F8E090",
"*.	c #FBF9EE",
"=.	c #AEA231",
"-.	c #C8C764",
";.	c #B1D692",
">.	c #8CBC65",
",.	c #8FBC67",
"'.	c #6C92C8",
").	c #4C7B31",
"!.	c #B6D49C",
"~.	c #B2D295",
"{.	c #5171A9",
"].	c #688EC3",
"^.	c #6488BE",
"/.	c #6185BB",
"(.	c #5F83B9",
"_.	c #5C7EB4",
":.	c #587BB1",
"<.	c #3A6C20",
"[.	c #8BBA62",
"}.	c #87BA60",
"|.	c #87B960",
"1.	c #538C28",
"2.	c #8DBA64",
"                                ",
"  . + @ # $ % & * = - ; > ,     ",
"' ) ) ) ) ) ) ) ) ) ) ) ) ) !   ",
"+ + + + + + + + + + + + + + ~   ",
"{ ] ] ] ] ] ] ^ / ] ] ] ] ] (   ",
"_ ] : < [ } | 1 2 3 4 5 6 ] 7   ",
"$ ] 8 9 0 a b c d e f g h ] i   ",
"% ] j k l m n o p q r s t ] u   ",
"& ] v k w x y z A B C D E ] F   ",
"G ] v v v H I J K L M N O P Q   ",
"R ] S T v U V W X Y Z `  ...+.@.",
"#.] ] $.T %.&.*.*.=.-.;.] >.,.@.",
"'.] ] ] ] ] ] ] ] ).!.] ] ] ~.@.",
"{.].~ ^./.(._.F :.<.[.}.] |.,.@.",
"                  @.1.2.~.2.1.@.",
"                    @.@.@.@.@.  "};
