/* XPM */
static const char * opencontrol_xpm[] = {
"16 16 6 1",
" 	c None",
".	c #FFFFFF",
"+	c #000000",
"@	c #00FFFF",
"#	c #0000FF",
"$	c #FF0000",
"       ......   ",
" +   ..++++++.  ",
" +@@.++++++++.  ",
" +@.++++.....#  ",
" +@.+++.$$####  ",
" +.+++.$$$####  ",
" +.+++.$$$####  ",
" +.+++.         ",
" +.+++.         ",
" +.+++.#######  ",
" +@.+++.######  ",
" +@.++++.....#  ",
" +@@.++++++++.  ",
" +@@$..++++++.  ",
"       ......   ",
"                "};
