/* XPM */
static const char * openfiltered_xpm[] = {
"16 16 65 1",
" 	c None",
".	c #CFA861",
"+	c #CEA65E",
"@	c #000000",
"#	c #C79A57",
"$	c #C79757",
"%	c #CDA45B",
"&	c #C39150",
"*	c #C39153",
"=	c #CDA65E",
"-	c #CDA55E",
";	c #00FFFF",
">	c #FF0000",
",	c #C18E4F",
"'	c #BD894C",
")	c #0000FF",
"!	c #CEA660",
"~	c #BE894D",
"{	c #CFA762",
"]	c #BE8A4F",
"^	c #CDA561",
"/	c #BD864C",
"(	c #C99F5B",
"_	c #B87F47",
":	c #C69956",
"<	c #C69655",
"[	c #B98149",
"}	c #B67943",
"|	c #C49555",
"1	c #C18F4F",
"2	c #C39255",
"3	c #D2AB6F",
"4	c #BE7340",
"5	c #C28F50",
"6	c #BE8A4D",
"7	c #C18C52",
"8	c #D6B479",
"9	c #E3CC99",
"0	c #DEC48D",
"a	c #BC834F",
"b	c #BC854A",
"c	c #BC864C",
"d	c #BC844B",
"e	c #B77E47",
"f	c #BB814C",
"g	c #DBBF87",
"h	c #E8D5A3",
"i	c #E9D7A5",
"j	c #DABB80",
"k	c #AB643D",
"l	c #C18E58",
"m	c #DFC58F",
"n	c #E7D3A0",
"o	c #E0C793",
"p	c #C99B61",
"q	c #874828",
"r	c #BC8451",
"s	c #D7B57D",
"t	c #D6B57F",
"u	c #C39156",
"v	c #AB6737",
"w	c #A55C33",
"x	c #B98048",
"y	c #AB6437",
"z	c #9B5830",
"   .+@@@@#$     ",
" @.%    @@&*    ",
" =-;>>>>>@@,')  ",
"@!;;>>>>>>@@~)  ",
"@{;;>>>>>>)@])  ",
"@^;;>>>>>>)@/)  ",
"@(;;>>>>>>)@_)  ",
"@:<        [}   ",
"@@|1      234   ",
" @@56>>))7890a  ",
" @@@bc/defghijk ",
" @;@@@@@@@lmnopq",
" @;;>>>))@@rstuv",
" @;;>>>)))@@wxy ",
"           @@z  ",
"            @   "};
