/* XPM */
static const char *table_xpm[] = {
/* columns rows colors chars-per-pixel */
"16 16 100 2",
"_  c #EDF2F8",
"f  c #F2F6FA",
"I  c #F2F6FB",
"#. c #4277BB",
"u  c #94B7E7",
"+. c #5687C7",
"<  c #9EBFEC",
"e  c #6A97D1",
"q  c #6F9BD4",
"&  c #88AFE2",
"   c #FFFFFF",
"8  c #84C37E",
"E  c #B5CDEA",
"z  c #B0C9E9",
"N  c #B0C9EA",
"!  c #EEF3F9",
"@. c #5284C3",
"+  c #9ABCEB",
"o  c #9FC0ED",
"l  c #AEC9E9",
"M  c #AEC9EA",
"Q  c #7AA4D9",
"*  c #84ACE0",
"U  c #5F8DC8",
"{  c #DBE4F1",
"X  c #A2C1EF",
"h  c #ACC6E9",
" . c #6E99D3",
"`  c #EAF0F7",
"-  c #7DA5DC",
"n  c #8CB1E3",
"w  c #9BBDEB",
"}  c #5D8AC5",
"g  c #AAC6E9",
"=  c #80A9DD",
"O. c #5B8AC9",
".  c #A3C2EF",
"A  c #B2CBEA",
"k  c #ADC7E9",
"'  c #E6EDF6",
"/  c #ADC7EA",
"a  c #EBF1F7",
"2  c #A1D398",
"H  c #5486C4",
"b  c #598AC8",
"o. c #5E8ECB",
"X. c #6392CE",
"7  c #89C682",
".. c #6896D1",
"t  c #A6C3E9",
"|  c #729ED6",
"c  c #B5CCE8",
"x  c #B0C8E8",
"T  c #BAD0EB",
"5  c #93CB8B",
"G  c #D8E2F0",
"F  c #AEC8E8",
"]  c #E2EAF4",
"S  c #B3CCEA",
"i  c #A9C4E8",
"3  c #9DD094",
"m  c #F1F6FA",
";  c #7AA3DA",
"R  c #BDD1EB",
"#  c #93B7E7",
"s  c #5F8FCB",
"y  c #6493CE",
"(  c #5F8CC6",
"K  c #EFF3F9",
">  c #F4F7FB",
"1  c #A5D59C",
"v  c #DEE7F2",
"[  c #DEE7F3",
"~  c #BED2EB",
"d  c #8FB4E5",
",  c #74A0D7",
"Y  c #7EA8DD",
"D  c #B7CEEA",
"Z  c #F0F4FA",
":  c #A1C1EE",
"6  c #8EC987",
"^  c #BFD3EB",
"P  c #BACFEA",
"$  c #90B5E6",
"4  c #98CE90",
"W  c #5C8AC6",
")  c #75A1D7",
"9  c #80C17A",
"V  c #5586C6",
"r  c #98BAE9",
"O  c #9DBEEB",
"B  c #DBE5F1",
"p  c #ACC7E8",
"j  c #ACC7EA",
"L  c #BBD0EB",
"J  c #82AADF",
"C  c #87AEE1",
"%  c #8CB2E4",
"@  c #96BAE9",
"0  c #7CBE76",
/* pixels */
"                                ",
"  . X o O + @ # $ % & * = - ;   ",
"  : > > > > > > > > > > > > ,   ",
"  < > 1 2 3 4 5 6 7 8 9 0 > q   ",
"  w >                     > e   ",
"  r > t t t t t t t t t t > y   ",
"  u > t   i       p       a s   ",
"  d f g h j k l z p z x c v b   ",
"  n m M   N       p       B V   ",
"  C Z A S S S S D p p x F G H   ",
"  J K D   L       P I     G U   ",
"  Y K T L L L L R E E E E G W   ",
"  Q ! ~   ^       /       G (   ",
"  ) _ ` ' ] [ { G G G G G G }   ",
"  |  ...X.o.O.+.@.@.@.@.@.@.#.  ",
"                                "
};
