/* XPM */
static char * timeline_xpm[] = {
"16 16 6 1",
" 	c None",
".	c #FFFFFF",
"+	c #000000",
"@	c #00FFFF",
"#	c #FF0000",
"$	c #0000FF",
"................",
".+..............",
".+@@######$$$$..",
".+@@######$$$$..",
".+@@######$$$$..",
".+@@######$$$$..",
".+@@######$$$$..",
".+..............",
".+..............",
".+@@###$$$$$$$..",
".+@@###$$$$$$$..",
".+@@###$$$$$$$..",
".+@@###$$$$$$$..",
".+@@###$$$$$$$..",
"................",
"................"};
