/* XPM */
static const char * app_edit_xpm[] = {
"16 16 132 2",
"  	c None",
". 	c #C7C7C7",
"+ 	c #C4C4C4",
"@ 	c #E5E5E5",
"# 	c #E4E4E4",
"$ 	c #ACACAC",
"% 	c #D1D1D1",
"& 	c #CECECE",
"* 	c #CACACA",
"= 	c #C2C2C2",
"- 	c #DEDEDE",
"; 	c #DDDDDD",
"> 	c #B2B2B2",
", 	c #A7A7A7",
"' 	c #A3A3A3",
") 	c #DCDCDC",
"! 	c #EDEDED",
"~ 	c #DBDBDB",
"{ 	c #BEBEBE",
"] 	c #D6D6D6",
"^ 	c #D4D4D4",
"/ 	c #B0B0B0",
"( 	c #CBCBCB",
"_ 	c #E7E7E7",
": 	c #B7B7B7",
"< 	c #D9D9D9",
"[ 	c #D2D2D2",
"} 	c #C8C8C8",
"| 	c #797979",
"1 	c #C5C5C5",
"2 	c #CCCCCC",
"3 	c #C9C9C9",
"4 	c #BABABA",
"5 	c #9C9C9C",
"6 	c #A1A1A1",
"7 	c #C6C6C6",
"8 	c #CABB92",
"9 	c #D8A558",
"0 	c #DBB185",
"a 	c #D09D46",
"b 	c #C0C0C0",
"c 	c #D8D8D8",
"d 	c #CDCDCD",
"e 	c #BCBCBC",
"f 	c #828282",
"g 	c #8F8F8F",
"h 	c #CEBF8A",
"i 	c #E7BE77",
"j 	c #F0D2B4",
"k 	c #FFF3E5",
"l 	c #EFD2AC",
"m 	c #C28B4C",
"n 	c #E9E9E9",
"o 	c #A5A5A5",
"p 	c #C9AC4B",
"q 	c #ECD47F",
"r 	c #F9E3B2",
"s 	c #E7C08B",
"t 	c #F6D3AE",
"u 	c #FCE0C4",
"v 	c #D09D66",
"w 	c #BFBFBF",
"x 	c #E2E2E2",
"y 	c #B1B1B1",
"z 	c #EED47C",
"A 	c #FDF6C4",
"B 	c #F6DD6C",
"C 	c #EDCA6D",
"D 	c #D7A363",
"E 	c #D29F66",
"F 	c #71685F",
"G 	c #A0A0A0",
"H 	c #CFCFCF",
"I 	c #9E9E9E",
"J 	c #EED379",
"K 	c #FDF7C7",
"L 	c #F5DC5F",
"M 	c #F7E25B",
"N 	c #F2D67A",
"O 	c #D59543",
"P 	c #706354",
"Q 	c #535353",
"R 	c #C1C1C1",
"S 	c #C2B08C",
"T 	c #E7CB77",
"U 	c #F5DC5E",
"V 	c #F7E15A",
"W 	c #F1D47B",
"X 	c #D99647",
"Y 	c #8E7558",
"Z 	c #A6A6A6",
"` 	c #D5D5D5",
" .	c #C4B491",
"..	c #D6B975",
"+.	c #FDF6C2",
"@.	c #F7DF63",
"#.	c #F8E25D",
"$.	c #F0D379",
"%.	c #DA9647",
"&.	c #CDC3B9",
"*.	c #6E6E6E",
"=.	c #A28E71",
"-.	c #D5B67A",
";.	c #D1B790",
">.	c #E4C955",
",.	c #F5DF5B",
"'.	c #EDD078",
").	c #D19145",
"!.	c #ADA397",
"~.	c #808080",
"{.	c #818181",
"].	c #6F6F6F",
"^.	c #AA8943",
"/.	c #FFF2E0",
"(.	c #D89A54",
"_.	c #BE7A1A",
":.	c #C59849",
"<.	c #B87F38",
"[.	c #585858",
"}.	c #4E4E4E",
"|.	c #494949",
"1.	c #83652B",
"2.	c #F9C794",
"3.	c #F9C991",
"4.	c #C98541",
"5.	c #AA6823",
"6.	c #6D6152",
"7.	c #553D11",
"8.	c #875F28",
"9.	c #BC8849",
"0.	c #A98346",
"a.	c #62574B",
"              . +               ",
"            . @ # $             ",
"    % & *   = - ; >   $ , '     ",
"    ) ! ~ = { ] ^ / $ ( _ :     ",
"    + ) ^ < ~ ] ^ < [ ( } |     ",
"    1 ^ 2 3 4 5 6 = 7 8 9 0 a   ",
"} + b c d e f     g h i j k l m ",
"+ n ] 3 & o       p q r s t u v ",
"w x [ 7 d y       z A B C D E F ",
"' g G H 7 2 I   J K L M N O P Q ",
"    $ 1 R 1 S T K U V W X Y     ",
"    Z ` 1  ...+.@.#.$.%.&.*.    ",
"    e - =.-.;.>.,.'.).!.[ ~.    ",
"    {.].^./.(._.:.<.  [.}.|.    ",
"        1.2.3.4.5.6.            ",
"        7.8.9.0.a.              "};
