/* XPM */
static const char * arrow_left_xpm[] = {
"16 16 45 1",
" 	c None",
".	c #74C768",
"+	c #71C365",
"@	c #8BCD80",
"#	c #87C97C",
"$	c #68B85D",
"%	c #62B158",
"&	c #5CA953",
"*	c #56A14D",
"=	c #4F9947",
"-	c #499141",
";	c #42883B",
">	c #3B8035",
",	c #35782F",
"'	c #2F702A",
")	c #8ACC7F",
"!	c #ABD8A2",
"~	c #A7D69E",
"{	c #A3D49A",
"]	c #9FD296",
"^	c #9ACF93",
"/	c #95CC8E",
"(	c #90CA89",
"_	c #8BC785",
":	c #87C581",
"<	c #82C27D",
"[	c #7EC078",
"}	c #296925",
"|	c #86C87B",
"1	c #A5D59C",
"2	c #A1D398",
"3	c #9DD094",
"4	c #98CE90",
"5	c #93CB8B",
"6	c #8EC987",
"7	c #89C682",
"8	c #84C37E",
"9	c #80C17A",
"0	c #7CBE76",
"a	c #78BD72",
"b	c #246321",
"c	c #7BBE71",
"d	c #83C17A",
"e	c #64AA5B",
"f	c #205E1D",
"                ",
"                ",
"                ",
"                ",
"    .           ",
"   .+           ",
"  .@#$%&*=-;>,' ",
" .)!~{]^/(_:<[} ",
" +|1234567890ab ",
"  $cde=-;>,'}bf ",
"   &*           ",
"    =           ",
"                ",
"                ",
"                ",
"                "};
