/* XPM */
static const char * arrow_inverse_xpm[] = {
"16 16 62 1",
" 	c None",
".	c #6DBE62",
"+	c #68B85D",
"@	c #64B35A",
"#	c #72C466",
"$	c #6FC063",
"%	c #6BBC60",
"&	c #67B75D",
"*	c #82C279",
"=	c #7EBE75",
"-	c #59A650",
";	c #71C365",
">	c #9CD294",
",	c #B2DAAB",
"'	c #AFD9A8",
")	c #ADD8A5",
"!	c #AAD6A2",
"~	c #A7D59F",
"{	c #74B46C",
"]	c #4E9746",
"^	c #70C265",
"/	c #97CF8E",
"(	c #B1D9AA",
"_	c #83C37A",
":	c #61AF57",
"<	c #5CA952",
"[	c #78B76F",
"}	c #74B36B",
"|	c #4C9545",
"1	c #6CBD61",
"2	c #5FAD56",
"3	c #509A48",
"4	c #4B9443",
"5	c #4A9242",
"6	c #478F40",
"7	c #387B32",
"8	c #33752D",
"9	c #2E6F29",
"0	c #2A6A25",
"a	c #6AA962",
"b	c #65A45D",
"c	c #3B8035",
"d	c #367A31",
"e	c #589751",
"f	c #8DC882",
"g	c #63A15B",
"h	c #256421",
"i	c #68A760",
"j	c #97CD8D",
"k	c #94CB8A",
"l	c #91CA87",
"m	c #8EC984",
"n	c #8CC881",
"o	c #246320",
"p	c #3E8338",
"q	c #5E9D56",
"r	c #5A9953",
"s	c #2F712A",
"t	c #2B6B26",
"u	c #276623",
"v	c #236220",
"w	c #296925",
"                ",
"        .       ",
"        +@      ",
"    #$%&*=-     ",
"   ;>,')!~{]    ",
"  ^/(_:<[}|     ",
"  1+@2  34      ",
"        5       ",
"      ]         ",
"     |6  7890   ",
"    4abcdefgh   ",
"   5ijklmnio    ",
"    pqrstuv     ",
"     89         ",
"      w         ",
"                "};
