/* XPM */
static const char * autoredraw_refresh_xpm[] = {
"16 16 49 1",
" 	c None",
".	c #55BB55",
"+	c #56BC56",
"@	c #6AD06A",
"#	c #7BE17B",
"$	c #88EE88",
"%	c #52B852",
"&	c #6DD36D",
"*	c #58BE58",
"=	c #76DC76",
"-	c #85EB85",
";	c #6FD56F",
">	c #4EB44E",
",	c #4DB34D",
"'	c #72D872",
")	c #81E781",
"!	c #74DA74",
"~	c #5EC45E",
"{	c #49AF49",
"]	c #43A943",
"^	c #5CC25C",
"/	c #7CE27C",
"(	c #4BB14B",
"_	c #63C963",
":	c #3DA33D",
"<	c #77DD77",
"[	c #5AC05A",
"}	c #369C36",
"|	c #71D771",
"1	c #309630",
"2	c #6CD26C",
"3	c #298F29",
"4	c #66CC66",
"5	c #3FA53F",
"6	c #238923",
"7	c #3EA43E",
"8	c #61C761",
"9	c #67CD67",
"0	c #218721",
"a	c #64CA64",
"b	c #42A842",
"c	c #1F851F",
"d	c #248A24",
"e	c #47AD47",
"f	c #78DE78",
"g	c #197F19",
"h	c #319731",
"i	c #46AC46",
"j	c #117711",
"                ",
"     ......  .. ",
"    +@#$$#@+%&% ",
"   *=------=;-> ",
"  ,')!~{{~!))){ ",
" ]^/;(   ]_///] ",
" :@<%   :[<<<<: ",
" }||}   }}}}}}} ",
" 1221           ",
" 3*45      3333 ",
" 67891    1$$76 ",
"  0(a&bccb$a(0  ",
"   de8f$$f8ed   ",
"    ghi..ihg    ",
"     jjjjjj     ",
"                "};
