/* XPM */
static const char * derived_controlled_enumerate_xpm[] = {
"16 16 6 1",
" 	c None",
".	c #000000",
"+	c #FFFF00",
"@	c #171700",
"#	c #2E2E00",
"$	c #414100",
"  ......        ",
" ..++++..       ",
"..++++++.       ",
".+++..++.       ",
".++......       ",
".++.     .. ... ",
".++.     .+..+@ ",
".++.......+..+@.",
".+++...+++++++++",
"..++++...+..+...",
" ..+++...+..+.. ",
"  ....+++++++++.",
"     .#$+##+....",
"       @+..+.   ",
"       ......   ",
"                "};
