/* XPM */
static char * derived_controlled_template_xpm[] = {
"16 16 3 1",
" 	c None",
".	c #000000",
"+	c #FFFF00",
"  ......        ",
" ..++++..       ",
"..++++++.       ",
".+++..++.       ",
".++......       ",
".++.            ",
".++.            ",
".++......       ",
".+++..++.       ",
"..++++++.       ",
" ..++++..       ",
"  ......        ",
"                ",
"                ",
"                ",
"                "};
