/* XPM */
static const char * download_xpm[] = {
"16 16 27 1",
" 	c None",
".	c #55BB55",
"+	c #50B650",
"@	c #88EE88",
"#	c #49AF49",
"$	c #83E983",
"%	c #41A741",
"&	c #7CE27C",
"*	c #389E38",
"=	c #73D973",
"-	c #2E942E",
";	c #6AD06A",
">	c #258B25",
",	c #61C761",
"'	c #1D831D",
")	c #71D771",
"!	c #5AC05A",
"~	c #167C16",
"{	c #45AB45",
"]	c #117711",
"^	c #44AA44",
"/	c #62C862",
"(	c #69CF69",
"_	c #6FD56F",
":	c #339933",
"<	c #2F952F",
"[	c #4DB34D",
"                ",
"      ....      ",
"      +@@+      ",
"      #$$#      ",
"      %&&%      ",
"      *==*      ",
"      -;;-      ",
"   >>>>,,>>>>   ",
"    '@)!!)@'    ",
"     ~{..{~     ",
"      ]^^]      ",
"       ]]       ",
"   .!/(__(/!.   ",
"   :@@@@@@@@:   ",
"   ]'<%[[%<']   ",
"                "};
