/* XPM */
static const char * fix_columns_sort_xpm[] = {
"16 16 98 2",
"  	c None",
". 	c #557EC0",
"+ 	c #547DC0",
"@ 	c #537ABC",
"# 	c #AFC9EC",
"$ 	c #A2C1E7",
"% 	c #4871B7",
"& 	c #4B72B7",
"* 	c #A7C4E8",
"= 	c #8FB8E8",
"- 	c #78ABE2",
"; 	c #446CB4",
"> 	c #456BB1",
", 	c #A1BEE4",
"' 	c #84B1E4",
") 	c #669EDD",
"! 	c #689FDD",
"~ 	c #476DB3",
"{ 	c #4064AE",
"] 	c #9CB8E1",
"^ 	c #7CAAE1",
"/ 	c #5C96D9",
"( 	c #5E97D9",
"_ 	c #85AFE1",
": 	c #95B5DF",
"< 	c #4368AF",
"[ 	c #496BB0",
"} 	c #6F9EDA",
"| 	c #5590D6",
"1 	c #5791D6",
"2 	c #5B94D7",
"3 	c #8BB2E2",
"4 	c #95B4DF",
"5 	c #4264AC",
"6 	c #385BA6",
"7 	c #3355A0",
"8 	c #3D6AB3",
"9 	c #528DD3",
"0 	c #5B93D5",
"a 	c #84ADDF",
"b 	c #A3C2E7",
"c 	c #A4C2E7",
"d 	c #A7C4E9",
"e 	c #92B0DC",
"f 	c #4B6CAF",
"g 	c #2E4F9B",
"h 	c #3864AF",
"i 	c #4E89D0",
"j 	c #5E93D4",
"k 	c #7BA7DC",
"l 	c #9ABBE5",
"m 	c #B2CDEE",
"n 	c #78A6DC",
"o 	c #83A7D9",
"p 	c #31529D",
"q 	c #2B4A97",
"r 	c #4380CC",
"s 	c #4B85CE",
"t 	c #6195D4",
"u 	c #91B6E5",
"v 	c #5B91D4",
"w 	c #3D79C7",
"x 	c #3054A1",
"y 	c #2C4996",
"z 	c #3B78C8",
"A 	c #3F7CCA",
"B 	c #6C9CD9",
"C 	c #4982CD",
"D 	c #3873C4",
"E 	c #2E509E",
"F 	c #223E8D",
"G 	c #336FC1",
"H 	c #5B8FD3",
"I 	c #326FC1",
"J 	c #2F4F9B",
"K 	c #6C799F",
"L 	c #2A55A6",
"M 	c #3471C5",
"N 	c #2E6ABF",
"O 	c #254695",
"P 	c #626F97",
"Q 	c #DCDCDC",
"R 	c #9F9F9F",
"S 	c #1C3687",
"T 	c #2557AB",
"U 	c #204193",
"V 	c #949494",
"W 	c #D4D4D4",
"X 	c #8F8F8F",
"Y 	c #193284",
"Z 	c #868686",
"` 	c #C8C8C8",
" .	c #828282",
"..	c #777777",
"+.	c #A8A8A8",
"@.	c #747474",
"#.	c #6C6C6C",
"$.	c #717171",
"        . +                     ",
"      @ # $ %                   ",
"    & * = - ;                   ",
"  > , ' ) ! ~                   ",
"{ ] ^ / ( _ : <                 ",
"[ } | | 1 2 3 4 5 6 6 6         ",
"  7 7 7 8 9 0 a b c d e f       ",
"        g h i j k l m n o p     ",
"          q r s t u v w x       ",
"          y z A B C D E         ",
"          F G H z I J K         ",
"            L M N O P Q R       ",
"            S T U     V W X     ",
"              Y         Z `  .  ",
"                          ..+.@.",
"                            #.$."};
