/* XPM */
static const char * sortcols_xpm[] = {
"12 12 5 1",
".	c #0021E0",
"+	c #006361",
"@	c #00D433",
"#	c #00FF03",
"X      s background c None",
".XXXXXXXXXXX",
"..XXXXXXXXXX",
"...XXXXXXXXX",
"...+XXXXXXXX",
"...++XXXXXXX",
"...++@XXXXXX",
"...++@@XXXXX",
"...++@@@XXXX",
"...++@@@#XXX",
"...++@@@##XX",
"...++@@@###X",
"...++@@@####"};

