/* XPM */
static const char * histo_sum_xpm[] = {
"16 16 49 1",
" 	g None",
".	g #818181",
"+	g #7E7E7E",
"@	g #7B7B7B",
"#	g #777777",
"$	g #737373",
"%	g #6F6F6F",
"&	g #6A6A6A",
"*	g #646464",
"=	g #BEBEBE",
"-	g #767676",
";	g #727272",
">	g #6D6D6D",
",	g #686868",
"'	g #636363",
")	g #5D5D5D",
"!	g #8B8B8B",
"~	g #909090",
"{	g #565656",
"]	g #707070",
"^	g #9F9F9F",
"/	g #666666",
"(	g #9B9B9B",
"_	g #585858",
":	g #525252",
"<	g #515151",
"[	g #555555",
"}	g #4F4F4F",
"|	g #494949",
"1	g #343434",
"2	g #4E4E4E",
"3	g #484848",
"4	g #2F2F2F",
"5	g #4C4C4C",
"6	g #474747",
"7	g #414141",
"8	g #3C3C3C",
"9	g #373737",
"0	g #323232",
"a	g #2E2E2E",
"b	g #2A2A2A",
"c	g #454545",
"d	g #404040",
"e	g #3A3A3A",
"f	g #353535",
"g	g #313131",
"h	g #2D2D2D",
"i	g #292929",
"j	g #262626",
"                ",
"                ",
"    .+@#$%&*    ",
"    +=-;>,')    ",
"     !~    {    ",
"     ]^/        ",
"      *(        ",
"       _:       ",
"      {<        ",
"     [}|   1    ",
"     23    4    ",
"    567890ab    ",
"    cdefghij    ",
"                ",
"                ",
"                "};
