/* XPM */
static const char * horvert_xpm[] = {
"12 12 2 1",
" 	s background c None",
"@	c #000000",
"            ",
"            ",
"  @@    @@  ",
"  @@    @@  ",
"  @@    @@  ",
"  @@@@@@@@  ",
"  @@@@@@@@  ",
"  @@    @@  ",
"  @@    @@  ",
"  @@    @@  ",
"            ",
"            "};
