/* XPM */
static const char *information[] = {
/* columns rows colors chars-per-pixel */
"16 16 142 2 ",
"   c #354F84",
".  c #344F86",
"X  c #344F88",
"o  c #345089",
"O  c #355089",
"+  c #34508A",
"@  c #355190",
"#  c #345092",
"$  c #345292",
"%  c #345395",
"&  c #345599",
"*  c #33559F",
"=  c #35569E",
"-  c #3566AB",
";  c #3569AB",
":  c #356BB1",
">  c #357DBD",
",  c #357EBC",
"<  c #357EBF",
"1  c #527AAB",
"2  c #567BAE",
"3  c #5780B2",
"4  c #5C83B0",
"5  c #5D83B1",
"6  c #5E84B3",
"7  c #5E85B3",
"8  c #5E85B4",
"9  c #5F89B7",
"0  c #5B8AB9",
"q  c #5E91BF",
"w  c #6086B4",
"e  c #628AB6",
"r  c #628AB8",
"t  c #638AB9",
"y  c #638BBB",
"u  c #628CBA",
"i  c #648FBE",
"p  c #658FBE",
"a  c #6691BE",
"s  c #6690BF",
"d  c #6992BE",
"f  c #7296BE",
"g  c #3B85C5",
"h  c #408BC9",
"j  c #418BCB",
"k  c #418ECB",
"l  c #458CCD",
"z  c #478DCF",
"x  c #478ECE",
"c  c #4991D1",
"v  c #4C92D2",
"b  c #6793C1",
"n  c #6991C2",
"m  c #6894C1",
"M  c #6894C2",
"N  c #6995C3",
"B  c #6996C3",
"V  c #6996C4",
"C  c #6A97C4",
"Z  c #6C96C5",
"A  c #6D98C3",
"S  c #6B98C4",
"D  c #6B98C5",
"F  c #6B99C5",
"G  c #6C98C7",
"H  c #6C9AC7",
"J  c #6297C8",
"K  c #689CCD",
"L  c #779CC3",
"P  c #789DC5",
"I  c #719CCB",
"U  c #719DCB",
"Y  c #719ECB",
"T  c #719DCC",
"R  c #729ECD",
"E  c #749ECF",
"W  c #77A3C5",
"Q  c #79A5C6",
"!  c #77A1CD",
"~  c #75A0CF",
"^  c #7DA7CB",
"/  c #6AA0D0",
"(  c #77A0D0",
")  c #76A2D0",
"_  c #77A4D1",
"`  c #7AA3D0",
"'  c #79A5D1",
"]  c #7AA5D4",
"[  c #7DA9D6",
"{  c #81AACF",
"}  c #8DAACD",
"|  c #85ABD1",
" . c #85ACD0",
".. c #82A9D6",
"X. c #85ABD7",
"o. c #86AED4",
"O. c #89ADD5",
"+. c #8CB2D9",
"@. c #97B3D1",
"#. c #90B4D2",
"$. c #93B7D5",
"%. c #99B5D4",
"&. c #93B8D2",
"*. c #91B3D9",
"=. c #93B3DB",
"-. c #97BAD8",
";. c #9FBBD8",
":. c #9CBCDB",
">. c #9FBCDF",
",. c #A2BCDA",
"<. c #A2BDDD",
"1. c #A2BFDD",
"2. c #A3BFDD",
"3. c #9DBAE0",
"4. c #9FBCE0",
"5. c #A0BFE0",
"6. c #A6C3DA",
"7. c #A6C3DB",
"8. c #A5C0DF",
"9. c #ABC5DF",
"0. c #AAC6DF",
"q. c #A8C2E0",
"w. c #A8C3E1",
"e. c #ABC2E1",
"r. c #A8C4E2",
"t. c #AEC5E3",
"y. c #AFC7E3",
"u. c #B0C9E4",
"i. c #B3CAE6",
"p. c #B4CBE7",
"a. c #B8CBE1",
"s. c #B8CDE6",
"d. c #D0DCEA",
"f. c #D3DFED",
"g. c #D4E0EE",
"h. c #F4F7FA",
"j. c #F4F7FB",
"k. c #F5F8FB",
"l. c #FCFDFE",
"z. c #FEFFFF",
"x. c white",
"c. c None",
/* pixels */
"c.c.c.c.c.c.c.c.c.c.c.c.c.c.c.c.",
"c.c.c.c.c.c.v l j h c.c.c.c.c.c.",
"c.c.c.c.c / 5.t.t.>.J > c.c.c.c.",
"c.c.c.z +.s.3.X...*.e.o.: c.c.c.",
"c.c.x +.i.[ ' r.w.) _ <. .- c.c.",
"c.c.K p.] ( E k.k.Y U ! 8.0 c.c.",
"c.k 4.=.~ R I 2.1.F F S | -.= c.",
"c.g u.` T H D x.z.B m M A 9.% c.",
"c.< y.) F C V g.j.s p i d 0.# c.",
"c., :.O.G N b f.h.y t r P &.@ c.",
"c.c.q q.Z n a.l.z.d.8 7 %.2 c.c.",
"c.c.; { ,.a u 9 6 5 4 } Q o c.c.",
"c.c.c.* ^ ;.L e w f @.W   c.c.c.",
"c.c.c.c.& 3 $.7.6.#.1 . c.c.c.c.",
"c.c.c.c.c.c.$ + X O c.c.c.c.c.c.",
"c.c.c.c.c.c.c.c.c.c.c.c.c.c.c.c."
};
