/* XPM */
static char * logout_xpm[] = {
"48 48 452 2",
"  	c None",
". 	c #3C7505",
"+ 	c #3A7404",
"@ 	c #3A7304",
"# 	c #3B7404",
"$ 	c #3C7503",
"% 	c #3C7604",
"& 	c #55901E",
"* 	c #6FAB36",
"= 	c #71AE38",
"- 	c #72AE39",
"; 	c #72AF3A",
"> 	c #6EAA35",
", 	c #518B1A",
"' 	c #3B7403",
") 	c #3C7506",
"! 	c #70AC37",
"~ 	c #529D0C",
"{ 	c #509B09",
"] 	c #519C0A",
"^ 	c #519C0B",
"/ 	c #529C0C",
"( 	c #4F9B08",
"_ 	c #4F9A07",
": 	c #4E9A06",
"< 	c #559E10",
"[ 	c #6BA732",
"} 	c #3B7504",
"| 	c #3D7607",
"1 	c #539D0D",
"2 	c #549D0E",
"3 	c #549E0F",
"4 	c #6DAB33",
"5 	c #3E7708",
"6 	c #73AF3A",
"7 	c #569E11",
"8 	c #569F12",
"9 	c #579F13",
"0 	c #61A522",
"a 	c #FFFFFF",
"b 	c #F5F9F0",
"c 	c #6CAA32",
"d 	c #74B03C",
"e 	c #58A014",
"f 	c #58A015",
"g 	c #59A016",
"h 	c #64A626",
"i 	c #F5F9F1",
"j 	c #6DAA33",
"k 	c #77B13F",
"l 	c #5AA118",
"m 	c #5BA219",
"n 	c #5CA21A",
"o 	c #67A829",
"p 	c #539D0E",
"q 	c #6EAB33",
"r 	c #78B241",
"s 	c #5DA31B",
"t 	c #5EA31C",
"u 	c #5FA41D",
"v 	c #69A92D",
"w 	c #E1EED5",
"x 	c #9BC673",
"y 	c #6EAC32",
"z 	c #A4CB7F",
"A 	c #E9F2E0",
"B 	c #F6F9F1",
"C 	c #6EAB35",
"D 	c #7AB343",
"E 	c #60A41F",
"F 	c #61A520",
"G 	c #61A521",
"H 	c #6CAB30",
"I 	c #FBFCF9",
"J 	c #6EAC33",
"K 	c #5FA41E",
"L 	c #7CB446",
"M 	c #5AA117",
"N 	c #6FAC36",
"O 	c #3F7709",
"P 	c #7CB547",
"Q 	c #63A623",
"R 	c #64A624",
"S 	c #64A725",
"T 	c #C8DFB1",
"U 	c #62A522",
"V 	c #DAEACB",
"W 	c #7DB548",
"X 	c #65A726",
"Y 	c #66A727",
"Z 	c #66A828",
"` 	c #C8E0B2",
" .	c #DBEBCC",
"..	c #F6FAF1",
"+.	c #5DA21B",
"@.	c #5AA017",
"#.	c #71AD38",
"$.	c #7FB64B",
"%.	c #68A92A",
"&.	c #68A92B",
"*.	c #69A92C",
"=.	c #6AAA2D",
"-.	c #74AF3B",
";.	c #75AF3C",
">.	c #81B74D",
",.	c #F6FAF2",
"'.	c #5BA118",
").	c #71AD39",
"!.	c #81B64D",
"~.	c #6AAA2E",
"{.	c #6BAB2F",
"].	c #6DAB31",
"^.	c #76B03E",
"/.	c #E3EFD8",
"(.	c #A3CA7D",
"_.	c #78B240",
":.	c #AACE87",
"<.	c #EAF3E2",
"[.	c #3F780A",
"}.	c #83B850",
"|.	c #6DAC32",
"1.	c #6FAD34",
"2.	c #6FAD35",
"3.	c #79B243",
"4.	c #FEFEFD",
"5.	c #72AE3A",
"6.	c #84B952",
"7.	c #70AD36",
"8.	c #71AE37",
"9.	c #72AF39",
"0.	c #7BB346",
"a.	c #CAE1B3",
"b.	c #77B241",
"c.	c #D3E6C0",
"d.	c #5EA31D",
"e.	c #73AD3A",
"f.	c #86BA54",
"g.	c #73AF3B",
"h.	c #75B03D",
"i.	c #7DB549",
"j.	c #EBF3E2",
"k.	c #7AB344",
"l.	c #73B03B",
"m.	c #E7F1DD",
"n.	c #5EA41D",
"o.	c #73AE3B",
"p.	c #87BA55",
"q.	c #76B13E",
"r.	c #76B13F",
"s.	c #77B140",
"t.	c #80B64D",
"u.	c #96C36C",
"v.	c #A4CC7F",
"w.	c #FEFFFE",
"x.	c #90C064",
"y.	c #F7FAF3",
"z.	c #88BB58",
"A.	c #78B242",
"B.	c #C4DDAC",
"C.	c #85B953",
"D.	c #F4F9F0",
"E.	c #D1E5BE",
"F.	c #98C46E",
"G.	c #40770A",
"H.	c #89BC59",
"I.	c #79B343",
"J.	c #7BB445",
"K.	c #7DB547",
"L.	c #85B954",
"M.	c #ECF4E4",
"N.	c #82B84F",
"O.	c #D4E7C3",
"P.	c #FDFDFB",
"Q.	c #8BBC5B",
"R.	c #E1EED4",
"S.	c #B4D596",
"T.	c #72AD3A",
"U.	c #8ABC5A",
"V.	c #7EB549",
"W.	c #7FB64A",
"X.	c #C2DCA9",
"Y.	c #C8E0B1",
"Z.	c #79B442",
"`.	c #78B340",
" +	c #78B33F",
".+	c #76B23D",
"++	c #75B13C",
"@+	c #73B03A",
"#+	c #B5D596",
"$+	c #DCEBCC",
"%+	c #70AD35",
"&+	c #70AC36",
"*+	c #80B74C",
"=+	c #89BB59",
"-+	c #CBE2B6",
";+	c #F9FCF7",
">+	c #88BD55",
",+	c #7BB642",
"'+	c #79B540",
")+	c #78B43E",
"!+	c #77B43C",
"~+	c #76B33C",
"{+	c #7EB848",
"]+	c #C6DFAE",
"^+	c #73AF38",
"/+	c #67AA28",
"(+	c #64A723",
"_+	c #64A526",
":+	c #87BA57",
"<+	c #C7E0AE",
"[+	c #7BB741",
"}+	c #76B43A",
"|+	c #71B234",
"1+	c #6DB02D",
"2+	c #69AE27",
"3+	c #65AB21",
"4+	c #B7D899",
"5+	c #88BB57",
"6+	c #77B23F",
"7+	c #7CB646",
"8+	c #9AC96E",
"9+	c #55A409",
"0+	c #69AF26",
"a+	c #FAFDF8",
"b+	c #509D07",
"c+	c #4F9B06",
"d+	c #63A525",
"e+	c #3E7607",
"f+	c #73AE39",
"g+	c #519C09",
"h+	c #509C07",
"i+	c #509E07",
"j+	c #5CA517",
"k+	c #90C55E",
"l+	c #56A60A",
"m+	c #56A70A",
"n+	c #74B634",
"o+	c #57A70A",
"p+	c #70B42F",
"q+	c #FDFEFC",
"r+	c #519F07",
"s+	c #4F9C07",
"t+	c #63A524",
"u+	c #3D7506",
"v+	c #4F9C06",
"w+	c #519E07",
"x+	c #52A008",
"y+	c #5EA717",
"z+	c #88C250",
"A+	c #58A90A",
"B+	c #C4E1A9",
"C+	c #63B01B",
"D+	c #58AA0B",
"E+	c #58AA0A",
"F+	c #C3E0A8",
"G+	c #F5FAF0",
"H+	c #53A108",
"I+	c #62A423",
"J+	c #53A208",
"K+	c #5FA918",
"L+	c #7FBE43",
"M+	c #5AAC0B",
"N+	c #D8EBC5",
"O+	c #AFD788",
"P+	c #73B930",
"Q+	c #F5FAF1",
"R+	c #54A309",
"S+	c #529F08",
"T+	c #54A208",
"U+	c #61AB18",
"V+	c #77BC36",
"W+	c #5BAE0C",
"X+	c #5CAF0C",
"Y+	c #E2F1D4",
"Z+	c #F6FBF2",
"`+	c #67B41C",
" @	c #C4E2A8",
".@	c #55A509",
"+@	c #54A409",
"@@	c #52A108",
"#@	c #509D09",
"$@	c #61A422",
"%@	c #62A722",
"&@	c #56A609",
"*@	c #62AD19",
"=@	c #6FB928",
"-@	c #5DB10D",
";@	c #ECF6E3",
">@	c #B0D988",
",@	c #5EB20D",
"'@	c #76BD32",
")@	c #54A308",
"!@	c #519E09",
"~@	c #61A421",
"{@	c #63A721",
"]@	c #519F08",
"^@	c #93C761",
"/@	c #DAECC8",
"(@	c #67B71B",
"_@	c #5FB40D",
":@	c #F6FBF1",
"<@	c #6AB91E",
"[@	c #5FB30D",
"}@	c #C6E4A9",
"|@	c #57A80A",
"1@	c #52A009",
"2@	c #62A521",
"3@	c #63A921",
"4@	c #B7DA96",
"5@	c #E2F0D4",
"6@	c #A1CF74",
"7@	c #68B420",
"8@	c #5CB00C",
"9@	c #60B50E",
"0@	c #61B60E",
"a@	c #62B70F",
"b@	c #B2DC89",
"c@	c #61B70E",
"d@	c #60B60E",
"e@	c #78C033",
"f@	c #59AB0B",
"g@	c #53A20A",
"h@	c #63A621",
"i@	c #64AA21",
"j@	c #86C04E",
"k@	c #F1F8EA",
"l@	c #64B01A",
"m@	c #5BAD0B",
"n@	c #5DB00C",
"o@	c #62B80F",
"p@	c #62B90F",
"q@	c #71BF25",
"r@	c #6DBD1E",
"s@	c #C7E5A9",
"t@	c #5AAD0B",
"u@	c #54A30A",
"v@	c #62A721",
"w@	c #3D7606",
"x@	c #64AA20",
"y@	c #56A509",
"z@	c #D1E7BB",
"A@	c #96CA64",
"B@	c #5DB10C",
"C@	c #63B90F",
"D@	c #63BA0F",
"E@	c #6DBF1D",
"F@	c #C0E49E",
"G@	c #B2DE89",
"H@	c #64BB0F",
"I@	c #7BC434",
"J@	c #55A40B",
"K@	c #62A820",
"L@	c #64AC1F",
"M@	c #6FC21F",
"N@	c #65BD10",
"O@	c #64BB10",
"P@	c #C7E6A9",
"Q@	c #59AA0B",
"R@	c #58A80A",
"S@	c #56A50B",
"T@	c #61A81F",
"U@	c #64AD20",
"V@	c #68B71C",
"W@	c #B4E089",
"X@	c #66BF11",
"Y@	c #66BE10",
"Z@	c #7DC635",
"`@	c #57A60B",
" #	c #62A920",
".#	c #69B81C",
"+#	c #71C520",
"@#	c #67C011",
"##	c #C8E7AA",
"$#	c #5EB30D",
"%#	c #57A70C",
"&#	c #63A91F",
"*#	c #3C7605",
"=#	c #64AD1E",
"-#	c #69B91C",
";#	c #B4E189",
">#	c #68C111",
",#	c #7DC835",
"'#	c #5BAD0C",
")#	c #58A70B",
"!#	c #62AA1E",
"~#	c #64AD1D",
"{#	c #5CAE0C",
"]#	c #6ABA1D",
"^#	c #F6FCF1",
"/#	c #72C721",
"(#	c #67BF11",
"_#	c #CFEAB4",
":#	c #58A80B",
"<#	c #62AA1D",
"[#	c #63AD1C",
"}#	c #6ABB1D",
"|#	c #61AA1C",
"1#	c #63AD1D",
"2#	c #B9DF95",
"3#	c #E8F6DA",
"4#	c #79CA28",
"5#	c #69C312",
"6#	c #80CB36",
"7#	c #F1F9E9",
"8#	c #A7D778",
"9#	c #3B7505",
"0#	c #62AA1C",
"a#	c #59AA0C",
"b#	c #B9DE95",
"c#	c #E8F7DA",
"d#	c #7ACD29",
"e#	c #6BC612",
"f#	c #81CC37",
"g#	c #A8D878",
"h#	c #5BA90E",
"i#	c #5EA519",
"j#	c #366B04",
"k#	c #4D8E11",
"l#	c #63AC1C",
"m#	c #65B11D",
"n#	c #67B31D",
"o#	c #68B51E",
"p#	c #6AB81F",
"q#	c #6BBA1F",
"r#	c #6DBB20",
"s#	c #6EBD21",
"t#	c #6FBF21",
"u#	c #70C222",
"v#	c #71C423",
"w#	c #73C623",
"x#	c #74C724",
"y#	c #76CA24",
"z#	c #77CC25",
"A#	c #79CE26",
"B#	c #7AD026",
"C#	c #7BD226",
"D#	c #7CD326",
"E#	c #78CE26",
"F#	c #77CB25",
"G#	c #76C924",
"H#	c #71C422",
"I#	c #70C122",
"J#	c #6CBB20",
"K#	c #69B71F",
"L#	c #66B31D",
"M#	c #60A91A",
"N#	c #49870E",
"O#	c #336403",
"P#	c #2F5E04",
"Q#	c #397304",
"R#	c #3A7204",
"S#	c #2D5904",
"                                                                                                ",
"        . + @ @ @ @ @ @ @ @ @ @ @ @ @ @ @ @ @ @ @ @ @ @ @ @ @ @ @ @ @ @ @ @ @ @ @ @ # $         ",
"      % & * = = = = - - - - - - - ; ; - - - - - - - = = = = = = = = = = = = = = = = > , '       ",
"      ) ! ~ { { ] ] ] ^ ^ ^ ^ ^ / / / / ^ ^ ^ ^ ] ] ] ] { { ( _ _ : : : : : : : : : < [ }       ",
"      | = / 1 1 2 2 2 3 3 3 3 < < < < < 3 3 3 3 2 2 2 1 1 / / ^ ] ] { ( _ _ : : : : { 4 #       ",
"      5 6 < 7 7 8 8 9 0 a a a a a a a a a a a a a a a a a a a a a a a b ^ ] { ( _ : { c #       ",
"      5 d e f f f g g h a a a a a a a a a a a a a a a a a a a a a a a i 2 1 / ^ ] { ^ j #       ",
"      5 k l l m n n n o a a a a a a a a a a a a a a a a a a a a a a a i 7 < 3 2 1 / p q #       ",
"      5 r s s t u u u v a a a a a a a a a a a a a w x y z A a a a a a B e 9 8 7 < 3 < C #       ",
"      5 D E E F F G G H a a a a a a a a a a a a I J E K u L a a a a a B M g f 9 8 7 9 N #       ",
"      O P Q Q R R S S J a a a a a a a a a a a a T Q U U G F V a a a a B n l M g f 9 f ! #       ",
"      O W X Y Z Z o o = a a a a a a a a a a a a ` X X S R Q  .a a a a ..s +.n l M g @.#.#       ",
"      O $.%.&.&.*.=.=.-.a a a a a a a a a a a a I ;.o Z Y >.a a a a a ,.K u s +.m l '.).#       ",
"      O !.~.~.{.H ].].^.a a a a a a a a a a a a a /.(._.:.<.a a a a a ,.F E u t +.n n ).#       ",
"      [.}.].|.J 1.1.2.3.a a a a a a a a a a a a 4.a a a a a a a a a a ,.U F E u t +.t 5.#       ",
"      [.6.2.7.8.= = 9.0.a a a a a a.k = = 8.7.2.1.J |.b.c.a a a a a a ,.R U G E u t d.e.#       ",
"      O f.= 9.6 g.d h.i.a a a a j.k.d d g.6 9.= 8.7.1.J l.m.a a a a a ,.S R U F E u n.o.#       ",
"      O p.d h.q.r.s.r t.a a a 4.u.r v.a a w.x.6 9.= 7.2.J }.y.a a a a ,.X S Q G F K K 5.#       ",
"      O z.r.s.r A.k.k.}.a a a B.k.C.D.a a E.q.d g.9.= 7.9.J F.w.a a a ,.Y S R U F K E o.#       ",
"      G.H.r I.k.J.L K.L.a a M.N.K.O.a a P.Q.r.q.d g.9.q.R.J.|.S.a a a ,.Z X R U F E E T.#       ",
"      G.U.I.k.J.K.V.W.z.a a X.$.:.a a a Y.Z.`. +.+++@+#+a $+%+].{.=.&.o Z X R U F E K &+#       ",
"      G.U.k.k.L W W.*+=+a a b -+;+a a ;+>+,+'+)+!+~+{+y.a a ]+^+/+(+E +.M 9 < / { _ ( _+#       ",
"      G.U.I.k.L K.V.W.:+a a a a a a a <+[+}+|+1+2+3+4+a a a a a a a a b : : : : : : ( _+#       ",
"      G.5+A.I.k.J.k.6+7+a a a a a a a 8+9+9+9+9+9+0+a+a a a a a a a a b b+c+: : : : ( d+#       ",
"      e+f+m e 3 g+h+i+j+a a a a a a a k+l+m+n+o+o+p+q+a a a a a a a a b r+i+s+c+: : ( t+#       ",
"      u+Q : : v+b+w+x+y+a a a a a a a z+A+A+B+C+D+E+F+a a a a a a a a G+H+x+w+b+c+: ( I+#       ",
"      u+Q : s+b+r+x+J+K+a a a a a a a L+M+M+N+O+M+M+P+q+a a a a a a a Q+R+J+x+r+b+v+( I+#       ",
"      u+U s+i+S+H+T+9+U+a a a a a a a V+W+X+Y+Z+`+X+X+ @a a a a a a a Q+.@+@J+@@r+b+#@$@#       ",
"      u+%@i+S+H+R+9+&@*@a a a a a a a =@-@-@;@a >@,@-@'@q+a a a a a a Q+o+&@9+)@H+r+!@~@#       ",
"      u+{@]@H+R+.@&@^@/@a a a a a a a (@_@_@:@a Z+<@_@[@}@a a a a a a Q+A+|@&@9+)@H+1@2@#       ",
"      u+3@@@)@9+&@4@5@6@7@W+8@-@,@_@9@9@0@a@4.a a b@c@d@e@q+a a a a a Q+f@A+|@&@9+T+g@h@#       ",
"      u+i@J+9+&@j@k@l@m@X+n@,@[@9@d@c@o@p@q@a a a :@r@p@o@s@a a a a a Q+t@f@A+|@&@9+u@v@#       ",
"      w@x@R+y@o+z@A@m@X+B@,@_@9@c@o@C@D@E@F@a a a a G@H@D@I@q+a a a a Q+X+t@f@A+o+.@J@K@#       ",
"      w@L@.@m+A+k@a a a a a a a a a a a a a a a a a :@M@N@O@P@a a a a ..n@W+M+Q@R@l+S@T@#       ",
"      w@U@&@|@D+M+W+8@V@a a a a a a a a a a a a a a a W@X@Y@Z@q+a a a :@,@8@W+M+E+o+`@ ##       ",
"      w@L@m+A+f@t@X+-@.#a a a a a a a a a a a a a a a :@+#@#Y@##a a a :@$#-@X+t@f@R@%#&##       ",
"      *#=#o+A+M+W+8@,@-#a a a a a a a a a a a a a a a a ;#>#@#,#q+a a :@_@,@8@'#f@A+)#!##       ",
"      *#~#|@Q@M+{#B@$#]#a a a a a a a a a a a a a a a a ^#/#>#(#_#a a :@9@$#n@W+M+D+:#<##       ",
"      *#[#|@f@t@X+-@[@}#a a a a a a a a a a a a a a a a a a a a a a a :@9@[@-@X+t@Q@:#|##       ",
"      *#1#A+f@m@X+,@_@2#a a a a a a a a a a a a a a a a 3#4#5#6#7#a a 8#d@_@-@X+t@f@:#|##       ",
"      9#0#a#f@m@X+,@b#a a a a a a a a a a a a a a a a c#d#e#f#7#a a g#o@d@_@-@X+t@f@h#i##       ",
"      j#k#l#m#n#o#p#q#r#s#t#u#v#w#x#y#z#A#B#C#D#D#C#B#E#F#G#x#w#H#I#t#s#J#q#K#o#L#m#M#N#O#      ",
"        P#Q#@ @ @ @ @ @ @ @ @ @ @ @ @ @ @ @ @ @ @ @ @ @ @ @ @ @ @ @ @ @ @ @ @ @ @ @ R#S#        ",
"                                                                                                ",
"                                                                                                ",
"                                                                                                ",
"                                                                                                ",
"                                                                                                "};
