/* XPM */
static const char * open3d_xpm[] = {
"16 16 5 1",
" 	c None",
".	c #000000",
"+	c #FFFFFF",
"@	c #0000FF",
"#	c #FF0000",
"                ",
" .++++  ++++++  ",
" +....++......+ ",
"+......+.......+",
"+..++..+..+++...",
"+..++..+..+@@+..",
" +++..++..+@@+..",
" . ...++..+  +..",
" ++++..+..+  +..",
"+..++..+..+@@+..",
"+..++..+..+++..+",
"+.....++.......+",
" +....++......+ ",
" .++++#@++++++  ",
"                ",
"                "};
