/* XPM */
static const char * opendata_xpm[] = {
"16 16 5 1",
" 	c None",
".	c #FFFFFF",
"+	c #000000",
"@	c #FF0000",
"#	c #0000FF",
"   ........     ",
" +.++++++++..   ",
" +.++++++++++.  ",
" +.+++....++++. ",
" +.+++.@@@.+++. ",
" +.+++.@@@#.+++.",
" +.+++.@@@#.+++.",
" +.+++.    .+++.",
" +.+++.    .+++.",
" +.+++.####.+++.",
" +.+++.###.+++. ",
" +.+++....++++. ",
" +.++++++++++.  ",
" +.++++++++..#  ",
"   ........     ",
"                "};
