<?xml version="1.0" encoding="UTF-8" standalone="no"?>
<svg
   viewBox="0 0 158.10873 105.47371"
   enable-background="new 0 0 150 74.7"
   version="1.1"
   id="svg1036"
   width="158.10873"
   height="105.4737"
   xmlns="http://www.w3.org/2000/svg"
   xmlns:svg="http://www.w3.org/2000/svg">
  <defs
     id="defs1040">
    <rect
       x="9.1411085"
       y="6.8558316"
       width="68.272652"
       height="25.566538"
       id="rect1372" />
  </defs>
  <path
     id="path1808"
     style="fill:#ffffff;fill-opacity:1;stroke:#00499a;stroke-width:4;stroke-linecap:butt;stroke-linejoin:miter;stroke-dasharray:none;stroke-opacity:1"
     d="M 79.054017,2.0000022 C 55.425323,1.9880712 2.8789562,52.736851 2.8789562,52.736851 2.8789562,52.736851 55.425323,103.48563 79.054017,103.4737 102.68271,103.46177 155.22908,52.736851 155.22908,52.736851 155.22908,52.736851 102.68271,2.0119332 79.054017,2.0000022 Z" />
  <circle
     fill="#174d83"
     cx="77.993301"
     cy="54.05267"
     r="29.6"
     id="circle1030" />
  <g
     aria-label="Paraver"
     transform="translate(33.334031,47.458533)"
     id="text1370"
     style="font-size:13.3333px;line-height:0;font-family:Bravura;-inkscape-font-specification:Bravura;text-align:center;letter-spacing:0px;word-spacing:0px;text-anchor:middle;white-space:pre;shape-inside:url(#rect1372)">
    <path
       d="M 26.124072,4.8554738 C 26.337404,3.6154769 25.55074,2.41548 24.01741,2.41548 H 21.030751 C 20.830752,2.41548 20.484086,2.41548 20.417419,2.815479 20.350753,3.2288112 20.697419,3.2288112 20.897418,3.2288112 H 21.297417 L 20.204087,9.7487948 H 19.804088 C 19.590755,9.7487948 19.257422,9.7487948 19.190756,10.162127 19.124089,10.562126 19.470755,10.562126 19.670755,10.562126 H 21.39075 C 21.59075,10.562126 21.937415,10.562126 22.004082,10.162127 22.070748,9.7487948 21.724083,9.7487948 21.524083,9.7487948 H 21.124084 L 21.537416,7.2954676 H 23.204079 C 24.750742,7.2954676 25.924072,6.0954707 26.124072,4.8554738 Z M 25.204074,4.8554738 C 25.097407,5.5621387 24.364076,6.4821364 23.084079,6.4821364 H 21.670749 L 22.217415,3.2288112 H 23.630745 C 24.910741,3.2288112 25.324074,4.1488089 25.204074,4.8554738 Z"
       style="font-family:'Latin Modern Mono Slanted';-inkscape-font-specification:'Latin Modern Mono Slanted';fill:#ffffff"
       id="path1789" />
    <path
       d="M 32.76405,10.148794 C 32.830716,9.7487948 32.497384,9.7487948 32.297384,9.7487948 31.737386,9.7487948 31.617386,9.6821283 31.524053,9.6421284 L 32.004052,6.7621357 C 32.150718,5.8154714 31.617386,4.6954742 29.697391,4.6954742 29.124059,4.6954742 27.764062,4.6954742 27.604063,5.6688051 27.537396,6.0688041 27.790729,6.2821369 28.110728,6.2821369 28.310728,6.2821369 28.697393,6.1621372 28.790726,5.6688051 28.817393,5.5621387 28.830726,5.5488054 29.097392,5.5221388 29.284058,5.5088055 29.457391,5.5088055 29.577391,5.5088055 30.590722,5.5088055 31.217387,5.9221378 31.057387,6.868802 28.697393,6.9088019 26.937398,7.5754669 26.724065,8.8554637 26.577399,9.7754614 27.27073,10.642126 28.630727,10.642126 29.124059,10.642126 29.964057,10.548793 30.657388,10.13546 30.884054,10.548793 31.524053,10.562126 32.030718,10.562126 32.404051,10.562126 32.697383,10.562126 32.76405,10.148794 Z M 30.737388,8.7754639 C 30.697388,9.0821298 30.644055,9.3621291 30.084056,9.6021285 29.564058,9.8287946 28.964059,9.8287946 28.857393,9.8287946 28.030728,9.8287946 27.564063,9.3754624 27.644063,8.8554637 27.764062,8.202132 28.990726,7.7087999 30.924054,7.6554667 Z"
       style="font-family:'Latin Modern Mono Slanted';-inkscape-font-specification:'Latin Modern Mono Slanted';fill:#ffffff"
       id="path1791" />
    <path
       d="M 40.110692,5.5621387 C 40.150692,5.2954727 40.084026,4.7354741 38.977362,4.7354741 38.297364,4.7354741 37.404033,4.9754735 36.524035,5.8154714 L 36.604035,5.3621392 C 36.670701,4.9488069 36.617368,4.8154739 36.164036,4.8154739 H 34.697373 C 34.497373,4.8154739 34.164041,4.8154739 34.097374,5.2154729 34.030708,5.6288052 34.350707,5.6288052 34.56404,5.6288052 H 35.644037 L 34.950706,9.7487948 H 33.870708 C 33.670709,9.7487948 33.337376,9.7487948 33.27071,10.148794 33.204043,10.562126 33.524042,10.562126 33.737375,10.562126 H 37.217366 C 37.417366,10.562126 37.764032,10.562126 37.830698,10.162127 37.897365,9.7487948 37.550699,9.7487948 37.350699,9.7487948 H 35.870703 L 36.150703,8.0821323 C 36.364035,6.8288022 37.364033,5.5488054 38.977362,5.5488054 38.937362,5.8688046 39.110695,6.1354706 39.444028,6.1354706 39.73736,6.1354706 40.044026,5.9221378 40.110692,5.5621387 Z"
       style="font-family:'Latin Modern Mono Slanted';-inkscape-font-specification:'Latin Modern Mono Slanted';fill:#ffffff"
       id="path1793" />
    <path
       d="M 46.764004,10.148794 C 46.83067,9.7487948 46.497338,9.7487948 46.297338,9.7487948 45.73734,9.7487948 45.61734,9.6821283 45.524007,9.6421284 L 46.004006,6.7621357 C 46.150672,5.8154714 45.61734,4.6954742 43.697345,4.6954742 43.124013,4.6954742 41.764016,4.6954742 41.604017,5.6688051 41.53735,6.0688041 41.790683,6.2821369 42.110682,6.2821369 42.310682,6.2821369 42.697347,6.1621372 42.790681,5.6688051 42.817347,5.5621387 42.83068,5.5488054 43.097346,5.5221388 43.284013,5.5088055 43.457346,5.5088055 43.577345,5.5088055 44.590676,5.5088055 45.217341,5.9221378 45.057341,6.868802 42.697347,6.9088019 40.937352,7.5754669 40.724019,8.8554637 40.577353,9.7754614 41.270684,10.642126 42.630681,10.642126 43.124013,10.642126 43.964011,10.548793 44.657342,10.13546 44.884009,10.548793 45.524007,10.562126 46.030672,10.562126 46.404005,10.562126 46.697337,10.562126 46.764004,10.148794 Z M 44.737342,8.7754639 C 44.697342,9.0821298 44.644009,9.3621291 44.084011,9.6021285 43.564012,9.8287946 42.964013,9.8287946 42.857347,9.8287946 42.030682,9.8287946 41.564017,9.3754624 41.644017,8.8554637 41.764016,8.202132 42.99068,7.7087999 44.924008,7.6554667 Z"
       style="font-family:'Latin Modern Mono Slanted';-inkscape-font-specification:'Latin Modern Mono Slanted';fill:#ffffff"
       id="path1795" />
    <path
       d="M 54.337313,5.2288062 C 54.403979,4.8154739 54.08398,4.8154739 53.870647,4.8154739 H 52.310651 C 52.110652,4.8154739 51.777319,4.8154739 51.710653,5.2154729 51.643986,5.6288052 51.963985,5.6288052 52.177318,5.6288052 H 52.550651 L 50.377323,9.9221277 49.643991,5.6288052 H 50.017324 C 50.217323,5.6288052 50.550656,5.6288052 50.617322,5.2288062 50.683989,4.8154739 50.36399,4.8154739 50.150657,4.8154739 H 48.590661 C 48.377328,4.8154739 48.057329,4.8154739 47.990662,5.2288062 47.923996,5.6288052 48.257328,5.6288052 48.457328,5.6288052 H 48.857327 L 49.630658,10.162127 C 49.710658,10.615459 49.977324,10.615459 50.257323,10.615459 50.510656,10.615459 50.817322,10.615459 51.043988,10.17546 L 53.337315,5.6288052 H 53.737314 C 53.937314,5.6288052 54.270646,5.6288052 54.337313,5.2288062 Z"
       style="font-family:'Latin Modern Mono Slanted';-inkscape-font-specification:'Latin Modern Mono Slanted';fill:#ffffff"
       id="path1797" />
    <path
       d="M 60.203959,9.1087964 C 60.270626,8.735464 59.88396,8.735464 59.80396,8.735464 59.563961,8.735464 59.443961,8.7754639 59.310628,9.0287966 58.910629,9.7087949 58.163965,9.8287946 57.790632,9.8287946 56.790635,9.8287946 55.910637,9.1621296 55.88397,8.0154658 H 59.857294 C 60.137293,8.0154658 60.390626,8.0154658 60.470625,7.5221337 60.723958,6.0021376 60.08396,4.6954742 58.350631,4.6954742 56.763968,4.6954742 55.270639,6.0288042 54.990639,7.6688 54.723973,9.2954626 55.84397,10.642126 57.563966,10.642126 59.323962,10.642126 60.150626,9.4421289 60.203959,9.1087964 Z M 59.577294,7.2154678 H 56.030637 C 56.377302,6.242137 57.283967,5.5088055 58.217298,5.5088055 58.910629,5.5088055 59.683961,5.842138 59.577294,7.2154678 Z"
       style="font-family:'Latin Modern Mono Slanted';-inkscape-font-specification:'Latin Modern Mono Slanted';fill:#ffffff"
       id="path1799" />
    <path
       d="M 68.110601,5.5621387 C 68.150601,5.2954727 68.083934,4.7354741 66.97727,4.7354741 66.297272,4.7354741 65.403941,4.9754735 64.523943,5.8154714 L 64.603943,5.3621392 C 64.67061,4.9488069 64.617276,4.8154739 64.163944,4.8154739 H 62.697281 C 62.497282,4.8154739 62.163949,4.8154739 62.097283,5.2154729 62.030616,5.6288052 62.350615,5.6288052 62.563948,5.6288052 H 63.643946 L 62.950614,9.7487948 H 61.870617 C 61.670617,9.7487948 61.337285,9.7487948 61.270618,10.148794 61.203952,10.562126 61.523951,10.562126 61.737284,10.562126 H 65.217275 C 65.417274,10.562126 65.76394,10.562126 65.830607,10.162127 65.897273,9.7487948 65.550607,9.7487948 65.350608,9.7487948 H 63.870612 L 64.150611,8.0821323 C 64.363944,6.8288022 65.363941,5.5488054 66.97727,5.5488054 66.937271,5.8688046 67.110603,6.1354706 67.443936,6.1354706 67.737269,6.1354706 68.043934,5.9221378 68.110601,5.5621387 Z"
       style="font-family:'Latin Modern Mono Slanted';-inkscape-font-specification:'Latin Modern Mono Slanted';fill:#ffffff"
       id="path1801" />
  </g>
  <path
     fill="#004990"
     d="M 70,19 C 73,19 79.2,20.3 81.5,21 57.9,19.9 43.1,35.8 43.1,54.1 43.1,67.1 50.9,81.5 69.6,85.8 47.9,86.2 35.2,68.3 35.2,52.7 35.2,32.9 52.2,19 70,19 Z M 57.4,14 C 61.2,14 66.2,15.3 69.7,16.3 68.2,16.1 65.8,16.1 64.9,16.1 43.3,16.1 30.2,35.2 30.2,52.8 30.2,68 38.6,84 58.8,88.6 34.9,89.3 22,68.3 22,51.2 22,31.4 37.7,14 57.4,14 Z"
     id="path1841" />
</svg>
