/* XPM */
static const char *report_disk[] = {
/* columns rows colors chars-per-pixel */
"16 16 154 2 ",
"   c #7E3118",
".  c #AB4221",
"X  c #AC4321",
"o  c #AE4622",
"O  c #AE4922",
"+  c #AF4B23",
"@  c #A54B2C",
"#  c #B14E23",
"$  c #B25124",
"%  c #B25225",
"&  c #B45525",
"*  c #B55626",
"=  c #B75926",
"-  c #B75B26",
";  c #B85E27",
":  c #B85F27",
">  c #AF5D35",
",  c #BA6128",
"<  c #BE7849",
"1  c #B37963",
"2  c #B37C64",
"3  c #B57F65",
"4  c #84BF51",
"5  c #84BF54",
"6  c #B58266",
"7  c #B78367",
"8  c #B98767",
"9  c #BF8F61",
"0  c #C28B64",
"q  c #C19263",
"w  c #C29464",
"e  c #C39665",
"r  c #C49966",
"t  c #C59A67",
"y  c #98C96F",
"u  c #99C971",
"i  c #2E5FA6",
"p  c #3062AF",
"a  c #3A69AA",
"s  c #3E6AAB",
"d  c #446DAB",
"f  c #4470B0",
"g  c #577EBB",
"h  c #537FC1",
"j  c #517FC3",
"k  c #5D84BF",
"l  c #5481C4",
"z  c #5583C6",
"x  c #5884C3",
"c  c #5B86C7",
"v  c #5D88C8",
"b  c #618AC7",
"n  c #6089C9",
"m  c #618BC9",
"M  c #628BC8",
"N  c #658DCA",
"B  c #658DCC",
"V  c #6C8BCD",
"C  c #688ECD",
"Z  c #6990CD",
"A  c #6E93CC",
"S  c #688BD3",
"D  c #6E8AD7",
"F  c #6D8BDA",
"G  c #6C8DDC",
"H  c #6E97D4",
"J  c #7198D0",
"K  c #7399D1",
"L  c #759AD0",
"P  c #739AD4",
"I  c #799CD5",
"U  c #7B9ED4",
"Y  c #779ED9",
"T  c #719EDF",
"R  c #789ED8",
"E  c #789FD8",
"W  c #799FDB",
"Q  c #7B9CDD",
"!  c #79A0D9",
"~  c #7AA0D9",
"^  c #7CA3DB",
"/  c #7BA1DC",
"(  c #7DA3DE",
")  c #7EA5DD",
"_  c #708FE1",
"`  c #74A0E0",
"'  c #76A0E0",
"]  c #76A2E0",
"[  c #77A3E1",
"{  c #78A3E1",
"}  c #7AA5E1",
"|  c #C7EE87",
" . c #C7EE8C",
".. c #D7F4A2",
"X. c #D7F6A2",
"o. c #82A4D6",
"O. c #85A2DD",
"+. c #80A6DD",
"@. c #85A8DD",
"#. c #81A7E1",
"$. c #81A7E2",
"%. c #8CAFE4",
"&. c #92B5E6",
"*. c #97B6EA",
"=. c #9AB6EF",
"-. c #99B8EA",
";. c #A0BEEA",
":. c #A1BFEA",
">. c #A1BFEF",
",. c #9EC0EF",
"<. c #A2C0EA",
"1. c #A3C0EA",
"2. c #B3C7E3",
"3. c #BACEEF",
"4. c #B0CDF3",
"5. c #CCC6C0",
"6. c #CDC6C0",
"7. c #CDC7C0",
"8. c #CDC7C1",
"9. c #CAC6C4",
"0. c #CAC7C4",
"q. c gray80",
"w. c gainsboro",
"e. c #FFFFDD",
"r. c #E9F4E4",
"t. c #E5F1ED",
"y. c #E6F1ED",
"u. c #E6F0EF",
"i. c #E6F1EF",
"p. c #E8F3EA",
"a. c LightYellow",
"s. c #EAF3F3",
"d. c #EDF5F3",
"f. c gray95",
"g. c #F3F3F3",
"h. c #F4F4F4",
"j. c gray96",
"k. c gray97",
"l. c #F1F8FF",
"z. c #F7FBFF",
"x. c #F8F8F8",
"c. c #F9F9F9",
"v. c gray98",
"b. c #FBFBFB",
"n. c #FAFBFD",
"m. c #FAFCFD",
"M. c #FBFCFD",
"N. c #FBFCFE",
"B. c gray99",
"V. c #FDFDFD",
"C. c #FCFDFE",
"Z. c #FDFDFE",
"A. c white",
"S. c None",
/* pixels */
"S.S.0 < , S.S.S.S.S.S.S.S.S.S.S.",
"S.q.0.8.: B.B.B.B.B.B.B.B.B.B.S.",
"S.S.8 t ; k.k.k.k.j.h.h.h.f.b.S.",
"S.q.0.7.- k.k.k.k.k.j.j.j.g.v.S.",
"S.S.7 r = x.x.} { [ ] ' ` h.v.S.",
"S.q.9.7.* c.c.{ 1.<.:.;.T h.k.S.",
"S.S.6 e & v.H U J o.C Z L K M S.",
"S.q.9.7.% b.B 4.A.2.A.A.A.A.:.n ",
"S.S.3 w $ v.c ,.A.A A.A.z.l.%.b ",
"S.q.9.6.# v.v >.m.N.Z.C.n.M.@.h ",
"S.S.2 q + c.N -.) +.^ ~ ! E R k ",
"S.q.9.5.O v.m &.$.#.( / W Y P g ",
"S.S.1 9 o v.l *.s.y.i.u.t.d.I f ",
"S.q.9.5.X V.j =.p.4 y u 5 r.Q a ",
"S.S.@ > . w.z 3.e.| ..X. .a.O.s ",
"S.S.S.  S.S.p x S _ G F D V d i "
};
