/* XPM */
static const char *report_add[] = {
/* columns rows colors chars-per-pixel */
"16 16 112 2 ",
"   c #7E3118",
".  c #2E5A15",
"X  c #2F5B15",
"o  c #366A19",
"O  c #376A19",
"+  c #376B19",
"@  c #3F7022",
"#  c #4C7B31",
"$  c #AB4221",
"%  c #AC4321",
"&  c #AE4622",
"*  c #AE4922",
"=  c #AF4B23",
"-  c #A54B2C",
";  c #B14E23",
":  c #B25124",
">  c #B25225",
",  c #B45525",
"<  c #B55626",
"1  c #B75926",
"2  c #B75B26",
"3  c #B85E27",
"4  c #B85F27",
"5  c #AF5D35",
"6  c #BA6128",
"7  c #BE7849",
"8  c #B37963",
"9  c #B37C64",
"0  c #B57F65",
"q  c #538C28",
"w  c #578F2D",
"e  c #618A49",
"r  c #628A49",
"t  c #668E4F",
"y  c #759960",
"u  c #819C72",
"i  c #B58266",
"p  c #B78367",
"a  c #B98767",
"s  c #BF8F61",
"d  c #81AB61",
"f  c #87B960",
"g  c #87BA60",
"h  c #8BBA62",
"j  c #8DBA64",
"k  c #8CBC65",
"l  c #8FBC67",
"z  c #8FBB6A",
"x  c #C28B64",
"c  c #C19263",
"v  c #C29464",
"b  c #C39665",
"n  c #C49966",
"m  c #C59A67",
"M  c #6A93D4",
"N  c #6A98D9",
"B  c #6B99DA",
"V  c #6E9ADC",
"C  c #6F9BDC",
"Z  c #719DDD",
"A  c #729CDC",
"S  c #719EDF",
"D  c #739EDF",
"F  c #739FE0",
"G  c #74A0E0",
"H  c #76A0E0",
"J  c #76A2E0",
"K  c #77A3E1",
"L  c #78A3E1",
"P  c #7AA5E1",
"I  c #8FA682",
"U  c #B1D390",
"Y  c #B1D692",
"T  c #B2D295",
"R  c #B4D495",
"E  c #B6D49C",
"W  c #ADC1A2",
"Q  c #B6C8AC",
"!  c #D0E6BA",
"~  c #A0BEEA",
"^  c #A1BFEA",
"/  c #A2C0EA",
"(  c #A3C0EA",
")  c #CCC6C0",
"_  c #CDC6C0",
"`  c #CDC7C0",
"'  c #CDC7C1",
"]  c #CAC6C4",
"[  c #CAC7C4",
"{  c gray80",
"}  c #D2D2D2",
"|  c gray83",
" . c #D8D8D8",
".. c gainsboro",
"X. c #EAEAEA",
"o. c #ECECEC",
"O. c #EEEEEE",
"+. c gray94",
"@. c gray95",
"#. c #F3F3F3",
"$. c #F4F4F4",
"%. c gray96",
"&. c #F6F6F6",
"*. c gray97",
"=. c #F8F8F8",
"-. c #F9F9F9",
";. c gray98",
":. c #FBFBFB",
">. c gray99",
",. c #FDFDFD",
"<. c white",
"1. c None",
/* pixels */
"1.1.x 7 6 1.1.1.1.1.1.1.1.1.1.1.",
"1.{ [ ' 4 >.>.>.>.>.>.>.>.>.>.1.",
"1.1.a m 3 *.*.*.*.%.$.$.$.@.:.1.",
"1.{ [ ` 2 *.*.*.*.*.%.%.%.#.;.1.",
"1.1.p n 1 =.=.P L K J H G $.;.1.",
"1.{ ] ` < -.-.L ( / ^ ~ S $.*.1.",
"1.1.i b , ;.;.J H G D A C @.&.1.",
"1.{ ] ` > :.;.=.=.=.*.#.@.+.O.1.",
"1.1.0 v : ;.=.F Z V B N M X.o.1.",
"1.{ ] _ ; ;.-.=.*.&.Q y t e I 1.",
"1.1.9 c = -.-.-.&.W d R ! z w X ",
"1.{ ] ) * ;.;.=.$.r U Y <.k l O ",
"1.1.8 s & ;.;.&.#.# E <.<.<.T + ",
"1.{ ] ) % ,.:.=.$.@ h g <.f l O ",
"1.1.- 5 $ .. .| } u q j T j q X ",
"1.1.1.  1.1.1.1.1.1.. o + o . 1."
};
