/* XPM */
static const char * run_script_xpm[] = {
"16 16 119 2",
"  	c None",
". 	c #C7C7C7",
"+ 	c #C4C4C4",
"@ 	c #E5E5E5",
"# 	c #E4E4E4",
"$ 	c #ACACAC",
"% 	c #D1D1D1",
"& 	c #CECECE",
"* 	c #CACACA",
"= 	c #C2C2C2",
"- 	c #DEDEDE",
"; 	c #DDDDDD",
"> 	c #B2B2B2",
", 	c #A7A7A7",
"' 	c #A3A3A3",
") 	c #DCDCDC",
"! 	c #EDEDED",
"~ 	c #DBDBDB",
"{ 	c #BEBEBE",
"] 	c #D6D6D6",
"^ 	c #D4D4D4",
"/ 	c #B0B0B0",
"( 	c #CBCBCB",
"_ 	c #E7E7E7",
": 	c #B7B7B7",
"< 	c #D9D9D9",
"[ 	c #D2D2D2",
"} 	c #C8C8C8",
"| 	c #797979",
"1 	c #C5C5C5",
"2 	c #CCCCCC",
"3 	c #C9C9C9",
"4 	c #BABABA",
"5 	c #9C9C9C",
"6 	c #A1A1A1",
"7 	c #C6C6C6",
"8 	c #C1C1C1",
"9 	c #898989",
"0 	c #C0C0C0",
"a 	c #D8D8D8",
"b 	c #CDCDCD",
"c 	c #BCBCBC",
"d 	c #828282",
"e 	c #8F8F8F",
"f 	c #C3C3C3",
"g 	c #8C8C8C",
"h 	c #878787",
"i 	c #838383",
"j 	c #E9E9E9",
"k 	c #A5A5A5",
"l 	c #70A440",
"m 	c #659F31",
"n 	c #6B6B6B",
"o 	c #BFBFBF",
"p 	c #E2E2E2",
"q 	c #B1B1B1",
"r 	c #68A03A",
"s 	c #81B35A",
"t 	c #579828",
"u 	c #616161",
"v 	c #A0A0A0",
"w 	c #CFCFCF",
"x 	c #6FA53D",
"y 	c #6DA337",
"z 	c #67A133",
"A 	c #629D30",
"B 	c #7CAF55",
"C 	c #AACB91",
"D 	c #74AB4F",
"E 	c #458E18",
"F 	c #585858",
"G 	c #535353",
"H 	c #6BA337",
"I 	c #B0CE96",
"J 	c #ADCD94",
"K 	c #A8CB90",
"L 	c #90BC74",
"M 	c #A1C78A",
"N 	c #68A546",
"O 	c #358707",
"P 	c #A6A6A6",
"Q 	c #D5D5D5",
"R 	c #639F31",
"S 	c #8EBA6F",
"T 	c #89B86B",
"U 	c #85B666",
"V 	c #80B361",
"W 	c #82B567",
"X 	c #98C283",
"Y 	c #5CA03C",
"Z 	c #257F00",
"` 	c #5B9B29",
" .	c #A9CA90",
"..	c #A5C88D",
"+.	c #A1C68A",
"@.	c #9EC588",
"#.	c #85B66A",
"$.	c #97C282",
"%.	c #66A548",
"&.	c #257907",
"*.	c #818181",
"=.	c #6F6F6F",
"-.	c #646464",
";.	c #519722",
">.	c #4A911C",
",.	c #448F16",
"'.	c #3B8B10",
").	c #5E9F3A",
"!.	c #96C180",
"~.	c #62A346",
"{.	c #247709",
"].	c #BDBDBD",
"^.	c #5B5B5B",
"/.	c #2B8301",
"(.	c #5FA143",
"_.	c #217903",
":.	c #515151",
"<.	c #217D00",
"[.	c #1E7B03",
"              . +               ",
"            . @ # $             ",
"    % & *   = - ; >   $ , '     ",
"    ) ! ~ = { ] ^ / $ ( _ :     ",
"    + ) ^ < ~ ] ^ < [ ( } |     ",
"    1 ^ 2 3 4 5 6 = 7 8 : 9     ",
"} + 0 a b c d     e f = b g h i ",
"+ j ] 3 & k         l m 4 7 ; n ",
"o p [ 7 b q         r s t 0 [ u ",
"' e v w 7 2 x y z A B C D E F G ",
"    $ 1 8 1 H I J C K L M N O   ",
"    P Q 1 ( R J S T U V W X Y Z ",
"    c - P i `  ...+.@.#.$.%.&.  ",
"    *.=.-.  ;.>.,.'.).!.~.{.    ",
"            *.].> ^./.(._.      ",
"              F :.  <.[.        "};
