/* XPM */
static const char * semantic_color_xpm[] = {
"12 12 7 1",
" 	c None",
".	c #70C0F8",
"+	c #0000F8",
"@	c #F8FCF8",
"#	c #F80000",
"$	c #00A800",
"%	c #A80000",
"..++@@##$$%%",
"..++@@##$$%%",
"..++@@##$$%%",
"..++@@##$$%%",
"..++@@##$$%%",
"..++@@##$$%%",
"..++@@##$$%%",
"..++@@##$$%%",
"..++@@##$$%%",
"..++@@##$$%%",
"..++@@##$$%%",
"..++@@##$$%%"};
