/* XPM */
static const char * short_labels_xpm[] = {
"16 16 3 1",
" 	c None",
".	c #24AC00",
"+	c #000000",
"                ",
"                ",
"  .    ++    .  ",
"  ..   +++  ..  ",
".....  +++ .....",
"......+ ++......",
"..... +  ++.....",
"  ..  +  ++ ..  ",
"  .  +   +++ .  ",
"     +    ++    ",
"    ++++++++    ",
"    +      ++   ",
"    +      ++   ",
"   +       +++  ",
"  +++     +++++ ",
"                "};
