/* XPM */
static const char * window_properties_xpm[] = {
"16 16 134 2",
"  	c None",
". 	c #8DB1DD",
"+ 	c #7BA7DC",
"@ 	c #7AA6DC",
"# 	c #7AA4DA",
"$ 	c #79A2D8",
"% 	c #76A0D5",
"& 	c #759ED4",
"* 	c #739DD2",
"= 	c #729ACF",
"- 	c #7099CE",
"; 	c #6F96CB",
"> 	c #6C94C9",
", 	c #7A9AC4",
"' 	c #85ACDD",
") 	c #92B9E8",
"! 	c #6F90C1",
"~ 	c #668BC0",
"{ 	c #7AA4DB",
"] 	c #F6F6F6",
"^ 	c #6387BD",
"/ 	c #79A3D9",
"( 	c #F5F5F5",
"_ 	c #F4F5F5",
": 	c #F4F5F4",
"< 	c #F4F4F4",
"[ 	c #C3C3C3",
"} 	c #CCBD94",
"| 	c #D8A558",
"1 	c #DBB185",
"2 	c #D09D46",
"3 	c #F2F2F2",
"4 	c #5883D2",
"5 	c #F3F2F2",
"6 	c #FFFFFF",
"7 	c #F5E6B1",
"8 	c #E7BE77",
"9 	c #F0D2B4",
"0 	c #FFF3E5",
"a 	c #EFD2AC",
"b 	c #C78C48",
"c 	c #F0F1F1",
"d 	c #F1F0F1",
"e 	c #F1F1F0",
"f 	c #F1F1F1",
"g 	c #F5E6B5",
"h 	c #EED681",
"i 	c #F9E3B2",
"j 	c #E7C08B",
"k 	c #F6D3AE",
"l 	c #FCE0C4",
"m 	c #D39F66",
"n 	c #EEEEEF",
"o 	c #EFEFEF",
"p 	c #EEEFEE",
"q 	c #EEEEEE",
"r 	c #EFEFEE",
"s 	c #EBDEB5",
"t 	c #EED47D",
"u 	c #FDF6C4",
"v 	c #F6DD6C",
"w 	c #EDCA6D",
"x 	c #D7A363",
"y 	c #C99963",
"z 	c #739CD1",
"A 	c #ECECEC",
"B 	c #EBECEC",
"C 	c #ECEBEC",
"D 	c #CABD95",
"E 	c #EED379",
"F 	c #FDF7C7",
"G 	c #F5DC5F",
"H 	c #F7E25B",
"I 	c #F2D67A",
"J 	c #E0A050",
"K 	c #6E7E9C",
"L 	c #6F97CC",
"M 	c #E9E9E9",
"N 	c #BFAE89",
"O 	c #E7CB77",
"P 	c #F5DC5E",
"Q 	c #F7E15A",
"R 	c #F1D47B",
"S 	c #DE9A4C",
"T 	c #E7D7C4",
"U 	c #5475AC",
"V 	c #6E94CA",
"W 	c #E7E7E7",
"X 	c #E7E7E8",
"Y 	c #D7C6A4",
"Z 	c #D6B875",
"` 	c #FDF6C2",
" .	c #F7DF63",
"..	c #F8E25D",
"+.	c #F0D379",
"@.	c #DC994A",
"#.	c #FAF1E6",
"$.	c #5373AA",
"%.	c #6C92C8",
"&.	c #E5E5E6",
"*.	c #E5E5E5",
"=.	c #E6E5E5",
"-.	c #C9B597",
";.	c #D5B67A",
">.	c #D1B790",
",.	c #E4C955",
"'.	c #F5DF5B",
").	c #EDD078",
"!.	c #DB9B4F",
"~.	c #E3D9CF",
"{.	c #E6E6E5",
"].	c #E6E5E6",
"^.	c #5172A9",
"/.	c #5171A9",
"(.	c #688EC3",
"_.	c #6488BE",
":.	c #AA8943",
"<.	c #FFF2E0",
"[.	c #D89A54",
"}.	c #BE7A1A",
"|.	c #C59849",
"1.	c #B68140",
"2.	c #6B7999",
"3.	c #5475AB",
"4.	c #5373A9",
"5.	c #83652B",
"6.	c #F9C794",
"7.	c #F9C991",
"8.	c #C98541",
"9.	c #AA641C",
"0.	c #553D11",
"a.	c #875F28",
"b.	c #BD8849",
"c.	c #BC8D42",
"                                ",
"  . + @ # $ % & * = - ; > ,     ",
"' ) ) ) ) ) ) ) ) ) ) ) ) ) !   ",
"+ + + + + + + + + + + + + + ~   ",
"{ ] ] ] ] ] ] ] ] ] ] ] ] ] ^   ",
"/ ( _ : < _ [ [ [ [ [ } | 1 2   ",
"$ 3 4 4 4 5 [ 6 6 6 7 8 9 0 a b ",
"% c d e d f [ 6 6 g h i j k l m ",
"& n o n n p q r s t u v w x y   ",
"z A B B A C [ D E F G H I J K   ",
"L M 4 4 4 M N O F P Q R S T U   ",
"V W X W W Y Z `  ...+.@.#.W $.  ",
"%.&.*.=.-.;.>.,.'.).!.~.{.].^.  ",
"/.(.~ _.:.<.[.}.|.1.2.3.4././.  ",
"        5.6.7.8.9.              ",
"        0.a.b.c.                "};
